<?xml version="1.0" encoding="UTF-8"?>
<svg version="1.1" xmlns="http://www.w3.org/2000/svg" width="282" height="272">
<path d="M0 0 C93.06 0 186.12 0 282 0 C282 89.76 282 179.52 282 272 C188.94 272 95.88 272 0 272 C0 182.24 0 92.48 0 0 Z " fill="#FDFEFE" transform="translate(0,0)"/>
<path d="M0 0 C1.00764404 0.00563965 2.01528809 0.0112793 3.0534668 0.01708984 C10.92616067 0.14479274 18.12303537 1.04573648 25.6875 3.3125 C26.37086426 3.50585938 27.05422852 3.69921875 27.75830078 3.8984375 C52.43294299 10.94988983 72.28745426 24.88058478 86.6875 46.3125 C87.22246094 47.10269531 87.75742188 47.89289063 88.30859375 48.70703125 C97.67541914 63.37766946 102.23927994 79.64270588 102.02368164 96.96801758 C101.99990241 99.00837334 102.00317167 101.04742931 102.00976562 103.08789062 C101.97201905 110.09159638 101.69397525 116.58520825 99.6875 123.3125 C99.15382812 125.16294922 99.15382812 125.16294922 98.609375 127.05078125 C91.95531264 147.34567145 81.09862327 165.42185262 63.6875 178.3125 C63.0275 178.3125 62.3675 178.3125 61.6875 178.3125 C61.3575 179.3025 61.0275 180.2925 60.6875 181.3125 C74.78579543 180.72629229 87.21228424 176.623739 99.6875 170.3125 C94.42258552 182.33139568 79.4891108 187.57014923 68.15625 192.1953125 C45.61494116 200.92391579 21.61861071 203.54519007 -2.375 203.5625 C-3.2157608 203.56317474 -4.05652161 203.56384949 -4.92276001 203.56454468 C-36.34331651 203.52463253 -71.11888228 200.11235079 -96.3125 179.3125 C-96.9725 178.3225 -97.6325 177.3325 -98.3125 176.3125 C-96.125 176.96875 -96.125 176.96875 -93.9375 177.625 C-92.54724609 178.03685547 -92.54724609 178.03685547 -91.12890625 178.45703125 C-89.44098451 178.9697287 -87.75863452 179.5023133 -86.08984375 180.07421875 C-71.39879093 184.97123636 -55.67224132 185.81369541 -40.3125 186.3125 C-41.25609375 185.7040625 -42.1996875 185.095625 -43.171875 184.46875 C-47.44448557 181.53531588 -50.3429251 178.10652912 -52.3125 173.3125 C-53.23383957 165.98057667 -53.10554882 159.93009169 -48.6015625 153.8984375 C-48.17617187 153.37507812 -47.75078125 152.85171875 -47.3125 152.3125 C-46.6525 151.3225 -45.9925 150.3325 -45.3125 149.3125 C-46.199375 148.735 -47.08625 148.1575 -48 147.5625 C-52.74061597 143.58973028 -54.25734977 137.97247686 -56.3125 132.3125 C-56.70050781 131.32894531 -57.08851562 130.34539062 -57.48828125 129.33203125 C-61.67368427 118.35727741 -64.45463181 106.96938534 -67.43505859 95.62353516 C-68.52559084 91.50839927 -69.65526959 87.40472297 -70.78881836 83.30126953 C-73.17041009 74.67823909 -75.43078239 66.06083625 -77.3125 57.3125 C-78.23809092 59.8405202 -78.42450319 61.00072189 -77.5 63.57421875 C-76.71347121 65.18091078 -75.92186379 66.78512738 -75.125 68.38671875 C-72.6357704 77.35033882 -77.21398938 85.69400631 -80.75 93.75 C-81.25337891 94.93271484 -81.75675781 96.11542969 -82.27539062 97.33398438 C-86.01872956 106.01872956 -86.01872956 106.01872956 -88.3125 108.3125 C-95.88135657 108.3125 -101.82081172 104.96861884 -108.3125 101.3125 C-108.8075 100.8175 -108.8075 100.8175 -109.3125 100.3125 C-109.01883067 92.28274144 -106.50438417 85.52072952 -103.5 78.125 C-103.08041016 76.97580078 -102.66082031 75.82660156 -102.22851562 74.64257812 C-99.04526118 66.82254907 -95.78040459 63.52462012 -88.01293945 60.17456055 C-85.3125 59.3125 -85.3125 59.3125 -82.3125 59.3125 C-80.74697939 54.51809312 -79.65168036 50.41025149 -80.3125 45.3125 C-82.33458359 42.20635913 -82.33458359 42.20635913 -85.3125 40.3125 C-88.88332798 40.39751971 -90.30629907 41.30836605 -93.3125 43.3125 C-96.7228976 43.52564985 -99.05781799 43.397394 -102.3125 42.3125 C-103.3025 42.8075 -103.3025 42.8075 -104.3125 43.3125 C-106.93492356 43.5162399 -109.49959203 43.63606725 -112.125 43.6875 C-113.19331055 43.74357422 -113.19331055 43.74357422 -114.28320312 43.80078125 C-118.34714586 43.86845097 -120.06132303 43.51907545 -123.23828125 40.90625 C-126.27237723 37.11220154 -127.36166221 35.71362313 -127.1875 30.75 C-126.3125 27.3125 -126.3125 27.3125 -124.61328125 25.640625 C-120.00696026 22.98162816 -114.51344295 23.48727711 -109.3125 23.3125 C-108.62833008 23.28526855 -107.94416016 23.25803711 -107.23925781 23.22998047 C-86.25501084 22.46787556 -86.25501084 22.46787556 -77.734375 27.98046875 C-75.47963563 29.48727368 -75.47963563 29.48727368 -73.3046875 29.25390625 C-70.60326746 27.97735286 -68.6736546 26.23127376 -66.4375 24.25 C-48.04336332 8.8234507 -23.98653909 -0.14235335 0 0 Z " fill="#E4FBDC" transform="translate(142.3125,18.6875)"/>
<path d="M0 0 C11.57246856 -0.42028837 23.4666312 -0.53813802 32.92675781 7.08251953 C30.92675781 8.08251953 30.92675781 8.08251953 28.46582031 7.34033203 C27.50417969 6.96650391 26.54253906 6.59267578 25.55175781 6.20751953 C19.24848996 3.77795807 14.20366502 2.91538332 7.42675781 2.95751953 C6.22768799 2.96477051 6.22768799 2.96477051 5.00439453 2.97216797 C0.35093961 3.01893636 -4.3004272 3.09152172 -8.94824219 3.33251953 C-9.85316406 3.37892578 -10.75808594 3.42533203 -11.69042969 3.47314453 C-14.74738756 4.25492392 -16.04598425 5.72524286 -18.07324219 8.08251953 C-16.92210937 7.86595703 -15.77097656 7.64939453 -14.58496094 7.42626953 C18.29371924 1.54623842 18.29371924 1.54623842 29.92675781 9.08251953 C32.10834322 10.76360111 34.14649901 12.49669783 36.13769531 14.39892578 C37.85056918 16.14697735 37.85056918 16.14697735 39.94726562 17.21386719 C42.81565219 19.92164108 42.90862789 22.92143907 43.38769531 26.66455078 C44.33061475 32.87166689 45.52103795 38.9055729 47.15332031 44.96923828 C47.34835144 45.69539337 47.54338257 46.42154846 47.74432373 47.16970825 C48.34128968 49.37135996 48.94585154 51.57081317 49.55175781 53.77001953 C50.16577871 56.01860475 50.77759347 58.2677527 51.38632202 60.51777649 C51.7601962 61.89776776 52.13726168 63.27690027 52.51821899 64.654953 C53.55067302 68.44351567 54.34870005 72.19876405 54.92675781 76.08251953 C94.55078398 72.68112035 132.48145448 57.57853039 166.36010742 36.93994141 C169.41697356 35.13974174 171.31268264 34.03348997 174.91113281 34.32080078 C175.90886719 34.69785156 175.90886719 34.69785156 176.92675781 35.08251953 C183.30853217 53.4301208 184.21019058 76.85131825 176.92675781 95.08251953 C170.6246887 108.0222709 159.07259664 114.00378879 146.05175781 118.64501953 C128.6137834 124.38587076 110.0171863 126.42743541 91.92675781 129.08251953 C92.56613281 129.88689453 93.20550781 130.69126953 93.86425781 131.52001953 C96.52528107 135.4410326 96.72082128 139.44894754 96.92675781 144.08251953 C97.69117188 143.91647217 98.45558594 143.7504248 99.24316406 143.5793457 C101.51966358 143.08572746 103.79646413 142.59349643 106.07348633 142.10229492 C108.64763087 141.54630058 111.22103728 140.98687802 113.79370117 140.42407227 C124.73617714 138.05312147 124.73617714 138.05312147 130.24316406 137.26220703 C130.97857422 137.15239502 131.71398437 137.04258301 132.47167969 136.92944336 C134.35042093 136.66459177 136.23424621 136.43652253 138.11816406 136.21142578 C141.286307 135.2993013 141.286307 135.2993013 142.61035156 131.69970703 C143.04476562 130.50603516 143.47917969 129.31236328 143.92675781 128.08251953 C146.86762496 124.53821973 150.1210569 122.39455283 154.68457031 121.60595703 C160.08745777 121.44401763 164.44293291 121.84999461 168.92675781 125.08251953 C173.24761662 129.39318764 175.70822574 132.50384108 176.23925781 138.77001953 C176.15115163 144.75022634 173.72977641 149.27950093 169.55175781 153.45751953 C164.46080562 156.60906137 159.9025972 157.71155526 153.92675781 157.08251953 C148.48602766 154.64357153 145.36317828 151.93393666 141.92675781 147.08251953 C141.29394531 144.89501953 141.29394531 144.89501953 140.92675781 143.08251953 C120.72117473 146.64376039 120.72117473 146.64376039 100.77050781 151.38330078 C97.92675781 152.08251953 97.92675781 152.08251953 94.92675781 152.08251953 C94.74113281 152.78376953 94.55550781 153.48501953 94.36425781 154.20751953 C92.39436051 158.14731413 89.5043373 160.56466849 85.92675781 163.08251953 C84.93675781 163.41251953 83.94675781 163.74251953 82.92675781 164.08251953 C146.86554181 165.7016724 146.86554181 165.7016724 206.92675781 147.08251953 C201.66184333 159.10141521 186.72836861 164.34016876 175.39550781 168.96533203 C152.85419897 177.69393532 128.85786852 180.31520961 104.86425781 180.33251953 C104.02349701 180.33319427 103.18273621 180.33386902 102.3164978 180.33456421 C70.89594131 180.29465206 36.12037553 176.88237032 10.92675781 156.08251953 C10.26675781 155.09251953 9.60675781 154.10251953 8.92675781 153.08251953 C11.11425781 153.73876953 11.11425781 153.73876953 13.30175781 154.39501953 C14.69201172 154.806875 14.69201172 154.806875 16.11035156 155.22705078 C17.7982733 155.73974823 19.48062329 156.27233283 21.14941406 156.84423828 C35.84046688 161.74125589 51.56701649 162.58371494 66.92675781 163.08251953 C65.98316406 162.47408203 65.03957031 161.86564453 64.06738281 161.23876953 C59.79477225 158.30533541 56.89633271 154.87654865 54.92675781 150.08251953 C54.00541824 142.7505962 54.13370899 136.70011122 58.63769531 130.66845703 C59.06308594 130.14509766 59.48847656 129.62173828 59.92675781 129.08251953 C60.58675781 128.09251953 61.24675781 127.10251953 61.92675781 126.08251953 C61.03988281 125.50501953 60.15300781 124.92751953 59.23925781 124.33251953 C54.49864185 120.35974981 52.98190805 114.74249639 50.92675781 109.08251953 C50.53875 108.09896484 50.15074219 107.11541016 49.75097656 106.10205078 C45.56557354 95.12729694 42.784626 83.73940487 39.80419922 72.39355469 C38.71366697 68.2784188 37.58398822 64.1747425 36.45043945 60.07128906 C34.06884773 51.44825862 31.80847542 42.83085578 29.92675781 34.08251953 C29.00116689 36.61053973 28.81475462 37.77074142 29.73925781 40.34423828 C30.5257866 41.95093031 31.31739402 43.55514691 32.11425781 45.15673828 C34.60348742 54.12035835 30.02526843 62.46402584 26.48925781 70.52001953 C25.98587891 71.70273438 25.4825 72.88544922 24.96386719 74.10400391 C21.22052825 82.7887491 21.22052825 82.7887491 18.92675781 85.08251953 C11.35790124 85.08251953 5.4184461 81.73863837 -1.07324219 78.08251953 C-1.56824219 77.58751953 -1.56824219 77.58751953 -2.07324219 77.08251953 C-1.77957286 69.05276097 0.73487364 62.29074905 3.73925781 54.89501953 C4.15884766 53.74582031 4.5784375 52.59662109 5.01074219 51.41259766 C8.19399663 43.59256861 11.45885322 40.29463965 19.22631836 36.94458008 C21.92675781 36.08251953 21.92675781 36.08251953 24.92675781 36.08251953 C26.49227843 31.28811265 27.58757745 27.18027103 26.92675781 22.08251953 C24.90467422 18.97637866 24.90467422 18.97637866 21.92675781 17.08251953 C18.35592984 17.16753924 16.93295874 18.07838558 13.92675781 20.08251953 C10.51636021 20.29566938 8.18143982 20.16741353 4.92675781 19.08251953 C4.26675781 19.41251953 3.60675781 19.74251953 2.92675781 20.08251953 C0.30433425 20.28625943 -2.26033422 20.40608678 -4.88574219 20.45751953 C-5.59794922 20.49490234 -6.31015625 20.53228516 -7.04394531 20.57080078 C-11.10788805 20.6384705 -12.82206522 20.28909498 -15.99902344 17.67626953 C-19.03311942 13.88222107 -20.1224044 12.48364266 -19.94824219 7.52001953 C-19.07324219 4.08251953 -19.07324219 4.08251953 -17.37402344 2.41064453 C-12.26350496 -0.53940009 -5.75455565 0.22904378 0 0 Z " fill="#143666" transform="translate(35.0732421875,41.91748046875)"/>
<path d="M0 0 C4.36775158 3.14884416 7.96773395 6.77820184 9.6875 11.9375 C10.2270737 18.30446964 9.31500351 22.62031245 5.6875 27.9375 C1.42696738 32.19803262 -2.82527617 33.66616649 -8.75 34.3125 C-14.53697038 33.70334522 -18.42217842 31.2005365 -22.1875 26.9375 C-24.07012441 24.27967731 -24.6949206 22.98597706 -25.3125 19.9375 C-45.51808308 23.49874086 -45.51808308 23.49874086 -65.46875 28.23828125 C-68.3125 28.9375 -68.3125 28.9375 -71.3125 28.9375 C-71.5909375 29.989375 -71.5909375 29.989375 -71.875 31.0625 C-73.8448973 35.0022946 -76.73492051 37.41964896 -80.3125 39.9375 C-81.7975 40.4325 -81.7975 40.4325 -83.3125 40.9375 C-19.373716 42.55665287 -19.373716 42.55665287 40.6875 23.9375 C35.42258552 35.95639568 20.4891108 41.19514923 9.15625 45.8203125 C-13.38505884 54.54891579 -37.38138929 57.17019007 -61.375 57.1875 C-62.2157608 57.18817474 -63.05652161 57.18884949 -63.92276001 57.18954468 C-95.34331651 57.14963253 -130.11888228 53.73735079 -155.3125 32.9375 C-155.9725 31.9475 -156.6325 30.9575 -157.3125 29.9375 C-155.85416667 30.375 -154.39583333 30.8125 -152.9375 31.25 C-152.01066406 31.52457031 -151.08382812 31.79914063 -150.12890625 32.08203125 C-148.44098451 32.5947287 -146.75863452 33.1273133 -145.08984375 33.69921875 C-130.39879093 38.59623636 -114.67224132 39.43869541 -99.3125 39.9375 C-100.25609375 39.3290625 -101.1996875 38.720625 -102.171875 38.09375 C-106.44448557 35.16031588 -109.3429251 31.73152912 -111.3125 26.9375 C-112.21787081 19.73265439 -112.17657825 13.41575211 -107.7421875 7.453125 C-105.80194244 5.39625318 -103.87495509 4.12017158 -101.3125 2.9375 C-100.71953125 2.59203125 -100.1265625 2.2465625 -99.515625 1.890625 C-94.39847899 -0.32317575 -87.98709184 0.1967822 -82.703125 1.66015625 C-76.91746661 4.05790394 -72.57991539 7.04055053 -70 12.9375 C-69.35609241 15.74727856 -69.25931698 18.07528634 -69.3125 20.9375 C-68.54808594 20.77145264 -67.78367187 20.60540527 -66.99609375 20.43432617 C-64.71959423 19.94070793 -62.44279369 19.4484769 -60.16577148 18.95727539 C-57.59162694 18.40128105 -55.01822054 17.84185849 -52.44555664 17.27905273 C-41.50308067 14.90810194 -41.50308067 14.90810194 -35.99609375 14.1171875 C-35.26068359 14.00737549 -34.52527344 13.89756348 -33.76757812 13.78442383 C-31.88883689 13.51957224 -30.0050116 13.291503 -28.12109375 13.06640625 C-24.95295081 12.15428177 -24.95295081 12.15428177 -23.62890625 8.5546875 C-23.19449219 7.36101562 -22.76007813 6.16734375 -22.3125 4.9375 C-16.37083847 -2.22332322 -8.46730096 -2.71592672 0 0 Z " fill="#153766" transform="translate(201.3125,165.0625)"/>
<path d="M0 0 C0.66 0.33 1.32 0.66 2 1 C2.69848633 3.13867188 2.69848633 3.13867188 3.33203125 5.96875 C3.57050781 7.00612305 3.80898437 8.04349609 4.0546875 9.11230469 C4.30476563 10.23024414 4.55484375 11.34818359 4.8125 12.5 C7.02572993 22.05737461 9.4890944 31.44885032 12.35253906 40.82763672 C13.06327189 43.21229009 13.73412584 45.6059143 14.3984375 48.00390625 C16.91099212 57.06303355 19.57142634 66.04427535 22.625 74.9375 C22.9019873 75.75968018 23.17897461 76.58186035 23.46435547 77.42895508 C25.77595935 84.01134636 28.83616564 89.20501095 34 94 C32.76302083 95.43229167 31.52604167 96.86458333 30.2890625 98.296875 C25.95769133 104.01953509 26.21050781 110.05246875 27 117 C29.06034899 123.01813564 32.96818429 126.11388977 38.42578125 129.08984375 C38.94527344 129.39019531 39.46476562 129.69054687 40 130 C40 130.33 40 130.66 40 131 C29.605 130.505 29.605 130.505 19 130 C18.34 127.69 17.68 125.38 17 123 C15.26792129 121.32115881 15.26792129 121.32115881 13.125 120.375 C9.53274095 118.40905459 7.35060486 116.42796542 5 113 C3.02 113.495 3.02 113.495 1 114 C1.103125 113.13375 1.20625 112.2675 1.3125 111.375 C0.88541057 106.76243413 -0.85042342 105.30705541 -4 102 C-6.475 102.495 -6.475 102.495 -9 103 C-8.7525 102.1028125 -8.7525 102.1028125 -8.5 101.1875 C-7.77009534 97.99416713 -7.80539762 96.37993798 -9.3125 93.4375 C-10.93093168 90.78000461 -10.93093168 90.78000461 -14 89 C-14.6875 85.375 -14.6875 85.375 -15 82 C-15.99 82 -16.98 82 -18 82 C-18.04898438 81.41992188 -18.09796875 80.83984375 -18.1484375 80.2421875 C-18.60018553 75.52219945 -19.44071614 71.49440642 -21 67 C-22.62554083 60.56418528 -23.2138765 54.63017142 -23 48 C-21.07942708 48.78125 -19.15885417 49.5625 -17.23828125 50.34375 C-14.73251778 51.07842411 -12.59776077 51.10918784 -10 51 C-8.27313114 47.36282199 -6.58307274 43.71049098 -4.92480469 40.04150391 C-4.29248148 38.64565209 -3.65485803 37.25219241 -3.01269531 35.86083984 C-2.00711938 33.66645621 -1.03235028 31.46037361 -0.0625 29.25 C0.255979 28.56623291 0.57445801 27.88246582 0.90258789 27.17797852 C3.86114482 20.28734006 3.08521811 14.03985556 0.375 7.125 C-1.10891089 3.32673267 -1.10891089 3.32673267 0 0 Z " fill="#E1FAD9" transform="translate(64,75)"/>
<path d="M0 0 C11.57246856 -0.42028837 23.4666312 -0.53813802 32.92675781 7.08251953 C30.92675781 8.08251953 30.92675781 8.08251953 28.46582031 7.34033203 C27.50417969 6.96650391 26.54253906 6.59267578 25.55175781 6.20751953 C19.24848996 3.77795807 14.20366502 2.91538332 7.42675781 2.95751953 C6.22768799 2.96477051 6.22768799 2.96477051 5.00439453 2.97216797 C0.35093961 3.01893636 -4.3004272 3.09152172 -8.94824219 3.33251953 C-9.85316406 3.37892578 -10.75808594 3.42533203 -11.69042969 3.47314453 C-14.74738756 4.25492392 -16.04598425 5.72524286 -18.07324219 8.08251953 C-16.92210937 7.86595703 -15.77097656 7.64939453 -14.58496094 7.42626953 C18.29371924 1.54623842 18.29371924 1.54623842 29.92675781 9.08251953 C32.10834322 10.76360111 34.14649901 12.49669783 36.13769531 14.39892578 C37.91683512 16.15930852 37.91683512 16.15930852 40.15332031 17.60986328 C41.03117187 18.33882812 41.03117187 18.33882812 41.92675781 19.08251953 C41.92675781 20.07251953 41.92675781 21.06251953 41.92675781 22.08251953 C40.83363281 22.30939453 39.74050781 22.53626953 38.61425781 22.77001953 C34.92410208 23.73626367 34.92410208 23.73626367 33.17675781 26.14501953 C32.55800781 27.59908203 32.55800781 27.59908203 31.92675781 29.08251953 C31.60320312 29.73478516 31.27964844 30.38705078 30.94628906 31.05908203 C29.45373066 34.50719654 28.57128141 36.88443241 29.66503906 40.57080078 C30.75628939 43.07050706 30.75628939 43.07050706 32.04394531 45.33251953 C34.8332728 54.02139807 29.92184091 62.69966186 26.48925781 70.52001953 C25.98587891 71.70273438 25.4825 72.88544922 24.96386719 74.10400391 C21.22052825 82.7887491 21.22052825 82.7887491 18.92675781 85.08251953 C11.35790124 85.08251953 5.4184461 81.73863837 -1.07324219 78.08251953 C-1.56824219 77.58751953 -1.56824219 77.58751953 -2.07324219 77.08251953 C-1.77957286 69.05276097 0.73487364 62.29074905 3.73925781 54.89501953 C4.15884766 53.74582031 4.5784375 52.59662109 5.01074219 51.41259766 C8.19399663 43.59256861 11.45885322 40.29463965 19.22631836 36.94458008 C21.92675781 36.08251953 21.92675781 36.08251953 24.92675781 36.08251953 C26.49227843 31.28811265 27.58757745 27.18027103 26.92675781 22.08251953 C24.90467422 18.97637866 24.90467422 18.97637866 21.92675781 17.08251953 C18.35592984 17.16753924 16.93295874 18.07838558 13.92675781 20.08251953 C10.51636021 20.29566938 8.18143982 20.16741353 4.92675781 19.08251953 C4.26675781 19.41251953 3.60675781 19.74251953 2.92675781 20.08251953 C0.30433425 20.28625943 -2.26033422 20.40608678 -4.88574219 20.45751953 C-5.59794922 20.49490234 -6.31015625 20.53228516 -7.04394531 20.57080078 C-11.10788805 20.6384705 -12.82206522 20.28909498 -15.99902344 17.67626953 C-19.03311942 13.88222107 -20.1224044 12.48364266 -19.94824219 7.52001953 C-19.07324219 4.08251953 -19.07324219 4.08251953 -17.37402344 2.41064453 C-12.26350496 -0.53940009 -5.75455565 0.22904378 0 0 Z " fill="#82EE5B" transform="translate(35.0732421875,41.91748046875)"/>
<path d="M0 0 C0 3 0 3 -1.625 4.98046875 C-27.223023 28.76810526 -67.70549455 33.22593496 -101.0625 33.25 C-101.9032608 33.25067474 -102.74402161 33.25134949 -103.61026001 33.25204468 C-135.03081651 33.21213253 -169.80638228 29.79985079 -195 9 C-195.66 8.01 -196.32 7.02 -197 6 C-191.80293812 7.36008215 -186.99226132 8.8851866 -182.25 11.4375 C-176.10324307 14.63074502 -169.70241076 16.34411028 -163 18 C-161.92878906 18.26683594 -160.85757813 18.53367188 -159.75390625 18.80859375 C-125.47737576 26.45642078 -90.43662025 25.50042993 -56 20 C-55.05318359 19.85046875 -54.10636719 19.7009375 -53.13085938 19.546875 C-40.27038692 17.42150235 -28.22916812 13.20833791 -16.03686523 8.67089844 C-14 8 -14 8 -12 8 C-12 7.34 -12 6.68 -12 6 C-8.04 4.02 -4.08 2.04 0 0 Z " fill="#2EC976" transform="translate(241,189)"/>
<path d="M0 0 C4.10553546 6.1583032 4.33093523 14.71942502 4 22 C3.67 22 3.34 22 3 22 C1.68 16.72 0.36 11.44 -1 6 C-6.28856798 6.75765689 -6.28856798 6.75765689 -10.57421875 8.828125 C-11.22680664 9.2089624 -11.87939453 9.5897998 -12.55175781 9.98217773 C-13.25655273 10.40055908 -13.96134766 10.81894043 -14.6875 11.25 C-31.7310113 20.97463835 -49.33262458 29.31290736 -67.75 36.0625 C-69.54969238 36.72366821 -69.54969238 36.72366821 -71.38574219 37.39819336 C-87.89661843 43.29053797 -104.34693043 47.47710999 -122 47 C-123.485 41.555 -123.485 41.555 -125 36 C-124.15107178 35.94054199 -123.30214355 35.88108398 -122.42749023 35.81982422 C-104.40515934 34.49942677 -87.28810977 32.59293111 -70 27 C-69.13391113 26.72591309 -68.26782227 26.45182617 -67.37548828 26.16943359 C-52.73196266 21.44826711 -38.91811016 14.97893782 -25.05859375 8.3671875 C-23.88796387 7.8112793 -22.71733398 7.25537109 -21.51123047 6.68261719 C-19.12454477 5.53889324 -16.7512449 4.38092624 -14.38330078 3.20019531 C-13.23716309 2.64170898 -12.09102539 2.08322266 -10.91015625 1.5078125 C-9.89187744 1.00137207 -8.87359863 0.49493164 -7.82446289 -0.02685547 C-4.64831216 -1.12117104 -3.13033046 -1.17162926 0 0 Z " fill="#86EF61" transform="translate(212,71)"/>
<path d="M0 0 C8.1217504 7.22444653 14.85900289 18.06552201 16.28125 28.91015625 C16.5021655 35.89660892 16.5021655 35.89660892 14.59375 38.68359375 C12.875 39.8125 12.875 39.8125 10.8125 39.78515625 C8.11376138 38.43034593 7.84069961 37.07380914 6.875 34.25 C6.53855469 33.34121094 6.20210937 32.43242188 5.85546875 31.49609375 C5.53191406 30.61050781 5.20835937 29.72492188 4.875 28.8125 C0.60861489 17.99488846 -6.80900431 10.7552282 -17.328125 5.96875 C-18.71257812 5.39640625 -18.71257812 5.39640625 -20.125 4.8125 C-20.8778125 4.43480469 -21.630625 4.05710937 -22.40625 3.66796875 C-26.39850705 2.41178442 -30.21688786 2.56318143 -34.375 2.625 C-35.58736328 2.6259668 -35.58736328 2.6259668 -36.82421875 2.62695312 C-40.98582775 2.65691671 -45.03993316 2.87881379 -49.171875 3.38671875 C-50.47640625 3.52722656 -51.7809375 3.66773438 -53.125 3.8125 C-54.78266798 2.15483202 -54.33549503 0.20903595 -54.375 -2.0625 C-54.40078125 -2.94679688 -54.4265625 -3.83109375 -54.453125 -4.7421875 C-54.125 -7.1875 -54.125 -7.1875 -53.109375 -8.8828125 C-36.9632959 -19.49854167 -13.66289995 -9.56402997 0 0 Z " fill="#31CF76" transform="translate(144.125,44.1875)"/>
<path d="M0 0 C1.6015625 1.609375 1.6015625 1.609375 2.625 3.75 C5.17158429 8.48296093 7.79414063 11.26471354 13 13 C18.94250075 13.47540006 23.53343305 12.08250169 29 10 C28.649375 10.78375 28.29875 11.5675 27.9375 12.375 C27.4734375 13.674375 27.4734375 13.674375 27 15 C27.495 15.99 27.495 15.99 28 17 C-1.79331416 21.06876522 -30.95033701 22.17302047 -61 22 C-58 20 -58 20 -54.5625 18.1875 C-50.58179187 15.9404618 -48.05254854 13.10509708 -46 9 C-43.2294772 8.10392332 -40.50717562 7.3332453 -37.6875 6.625 C-36.84606445 6.40948486 -36.00462891 6.19396973 -35.13769531 5.97192383 C-28.87229937 4.39862616 -22.5777077 2.98637336 -16.25 1.6875 C-15.42975342 1.51621582 -14.60950684 1.34493164 -13.7644043 1.16845703 C-9.14415859 0.25514712 -4.72141642 -0.51995345 0 0 Z " fill="#DFF6DA" transform="translate(176,185)"/>
<path d="M0 0 C-0.07992187 0.82242188 -0.15984375 1.64484375 -0.2421875 2.4921875 C0.07287774 7.05555175 1.74000568 10.14312477 3.875 14.125 C4.23980469 14.82753906 4.60460937 15.53007812 4.98046875 16.25390625 C6.39057347 18.96643497 7.81856494 21.66700028 9.28125 24.3515625 C10.23850484 26.54700567 9.78792244 27.79381715 9 30 C2.75887723 29.50617379 -2.35130576 26.65818138 -7.875 23.9375 C-8.84953125 23.46505859 -9.8240625 22.99261719 -10.828125 22.50585938 C-13.22216874 21.34404403 -15.61254494 20.1752793 -18 19 C-17.22885715 22.28933814 -16.12143191 25.08678976 -14.625 28.125 C-13.99464844 29.42824219 -13.99464844 29.42824219 -13.3515625 30.7578125 C-12.05282897 33.27261738 -12.05282897 33.27261738 -9 35 C-9 35.99 -9 36.98 -9 38 C-12.08809695 39.76462683 -13.23312136 40 -17 40 C-17.26039063 38.84371094 -17.52078125 37.68742187 -17.7890625 36.49609375 C-18.88632749 32.12149686 -20.47870153 28.1452633 -22.375 24.0625 C-22.66632813 23.39154297 -22.95765625 22.72058594 -23.2578125 22.02929688 C-24.9132792 18.25078303 -24.9132792 18.25078303 -28.2265625 16.05859375 C-28.81179687 16.03925781 -29.39703125 16.01992187 -30 16 C-29.60876378 22.65101578 -27.5771715 28.09200613 -25.05859375 34.2421875 C-24 37 -24 37 -24 39 C-22.515 39.495 -22.515 39.495 -21 40 C-21 40.99 -21 41.98 -21 43 C-22.4117783 43.53394179 -23.82970244 44.05165104 -25.25 44.5625 C-26.03890625 44.85253906 -26.8278125 45.14257812 -27.640625 45.44140625 C-30.19103452 46.04522837 -31.55322229 45.8473932 -34 45 C-33.94199219 44.01515625 -33.88398438 43.0303125 -33.82421875 42.015625 C-33.82759738 37.54231543 -35.18645922 33.87084095 -36.8125 29.75 C-37.07353516 29.04359375 -37.33457031 28.3371875 -37.60351562 27.609375 C-38.92361832 24.16732946 -40.04304306 21.30873515 -43 19 C-42.505 17.515 -42.505 17.515 -42 16 C-38.88141156 14.44070578 -36.0050632 13.18039596 -32.5625 12.5625 C-29.35577761 11.85858533 -26.88373628 10.39170065 -24.0625 8.7421875 C-20.10167922 7.31689214 -16.88189922 8.9895255 -13.23046875 10.62890625 C-11.8801488 11.26783813 -10.53253134 11.91250878 -9.1875 12.5625 C-8.49462891 12.89185547 -7.80175781 13.22121094 -7.08789062 13.56054688 C-5.38955052 14.36872251 -3.69444231 15.18368377 -2 16 C-2 12.21625991 -3.10336895 10.25136751 -5 7 C-7.04946399 5.14684743 -7.04946399 5.14684743 -9 4 C-8 1 -8 1 -6.1875 -0.25 C-3.66056586 -1.11637742 -2.47778006 -0.88492145 0 0 Z " fill="#193069" transform="translate(258,207)"/>
<path d="M0 0 C-16.83141523 6.48193141 -33.15488738 11.19659976 -51 14 C-51.96454102 14.15388184 -52.92908203 14.30776367 -53.92285156 14.46630859 C-88.17797517 19.74906774 -142.86914347 23.08723768 -173 3 C-168.92302833 3.47856101 -164.87718333 3.99675968 -160.8359375 4.71875 C-150.24841573 6.59153437 -139.8647301 7.46027796 -129.12109375 7.7890625 C-125.83768425 7.89439277 -122.62127414 8.13163144 -119.359375 8.515625 C-112.19816504 9.27961823 -105.00499268 9.15307791 -97.8125 9.125 C-96.68210297 9.12167664 -96.68210297 9.12167664 -95.52886963 9.11828613 C-66.60125694 9.01890743 -37.60911604 7.71064528 -9.45874023 0.48730469 C-8.64091064 0.27879883 -7.82308105 0.07029297 -6.98046875 -0.14453125 C-6.27817139 -0.33378174 -5.57587402 -0.52303223 -4.85229492 -0.71801758 C-3 -1 -3 -1 0 0 Z " fill="#185768" transform="translate(229,197)"/>
<path d="M0 0 C4.16102567 3.02340535 5.97939714 7.28885572 7.0234375 12.15234375 C7.5482474 16.51847052 7.54030742 19.96354292 5.7734375 24.02734375 C1.77556488 28.88190336 -2.66665099 30.19953303 -8.5390625 31.83984375 C-9.30669922 32.06478516 -10.07433594 32.28972656 -10.86523438 32.52148438 C-13.98214874 33.4155252 -16.71819664 34.15234375 -19.9765625 34.15234375 C-19.821875 32.45078125 -19.821875 32.45078125 -19.6640625 30.71484375 C-19.63954382 25.61495896 -20.92211528 21.06517287 -22.3515625 16.21484375 C-22.57287842 15.45695557 -22.79419434 14.69906738 -23.0222168 13.91821289 C-24.30078921 9.6426943 -24.30078921 9.6426943 -26.9765625 6.15234375 C-26.9765625 5.16234375 -26.9765625 4.17234375 -26.9765625 3.15234375 C-8.3453479 -3.57893378 -8.3453479 -3.57893378 0 0 Z " fill="#172E67" transform="translate(210.9765625,228.84765625)"/>
<path d="M0 0 C11.57246856 -0.42028837 23.4666312 -0.53813802 32.92675781 7.08251953 C30.92675781 8.08251953 30.92675781 8.08251953 28.46582031 7.34033203 C27.50417969 6.96650391 26.54253906 6.59267578 25.55175781 6.20751953 C19.24848996 3.77795807 14.20366502 2.91538332 7.42675781 2.95751953 C6.22768799 2.96477051 6.22768799 2.96477051 5.00439453 2.97216797 C0.35093961 3.01893636 -4.3004272 3.09152172 -8.94824219 3.33251953 C-9.85316406 3.37892578 -10.75808594 3.42533203 -11.69042969 3.47314453 C-14.74738756 4.25492392 -16.04598425 5.72524286 -18.07324219 8.08251953 C-16.92210937 7.86595703 -15.77097656 7.64939453 -14.58496094 7.42626953 C18.24227713 1.55543834 18.24227713 1.55543834 29.92675781 9.08251953 C37.43488189 14.60689176 37.43488189 14.60689176 38.92675781 19.08251953 C37.85425781 19.51564453 36.78175781 19.94876953 35.67675781 20.39501953 C32.76403135 21.63573466 30.36639615 23.03322332 27.92675781 25.08251953 C27.39050781 23.94814453 26.85425781 22.81376953 26.30175781 21.64501953 C24.62617862 18.71572683 24.23570621 18.19837518 20.92675781 16.95751953 C17.41056452 17.10402758 16.62246449 17.97649869 13.92675781 20.08251953 C10.47748747 20.36409262 8.21722988 20.17934355 4.92675781 19.08251953 C4.26675781 19.41251953 3.60675781 19.74251953 2.92675781 20.08251953 C0.30433425 20.28625943 -2.26033422 20.40608678 -4.88574219 20.45751953 C-5.59794922 20.49490234 -6.31015625 20.53228516 -7.04394531 20.57080078 C-11.10788805 20.6384705 -12.82206522 20.28909498 -15.99902344 17.67626953 C-19.03311942 13.88222107 -20.1224044 12.48364266 -19.94824219 7.52001953 C-19.07324219 4.08251953 -19.07324219 4.08251953 -17.37402344 2.41064453 C-12.26350496 -0.53940009 -5.75455565 0.22904378 0 0 Z " fill="#133465" transform="translate(35.0732421875,41.91748046875)"/>
<path d="M0 0 C4.53245556 2.64817628 8.03153938 6.08840407 10 11 C10.45304906 16.61780838 10.21244804 20.18132794 7 25 C2.84415562 29.10043312 -0.33761626 31.16521107 -6.1875 31.375 C-11.02251727 31.32430519 -13.94985232 30.63507882 -17.62890625 27.4765625 C-21.63015094 23.16752976 -22.56261239 18.88372141 -22.3515625 13.17578125 C-21.59131311 8.47068227 -18.82928207 5.73055802 -15.375 2.6875 C-10.51480903 -0.76579359 -5.84077821 -0.97477321 0 0 Z " fill="#2AC874" transform="translate(117,170)"/>
<path d="M0 0 C6.78985094 6.48122135 11.73976383 15.01902409 12.1875 24.625 C11.75 27.625 11.75 27.625 10.5625 29.625 C8.75 30.625 8.75 30.625 6.2890625 30.5390625 C3.75 29.625 3.75 29.625 2.37890625 27.1484375 C2.02699219 26.10945313 1.67507812 25.07046875 1.3125 24 C-1.94364165 15.50177272 -5.87273993 10.70583637 -14.03125 6.55859375 C-20.87964938 3.67696091 -29.51510846 3.95805508 -36.75 5.25 C-37.575 5.37375 -38.4 5.4975 -39.25 5.625 C-41.25 3.625 -41.25 3.625 -41.3671875 1.56640625 C-40.71683726 -4.82171139 -40.71683726 -4.82171139 -38.5625 -7.375 C-25.35790063 -13.08509703 -10.76944831 -8.36703292 0 0 Z " fill="#2FCF75" transform="translate(133.25,58.375)"/>
<path d="M0 0 C8.85671444 0.39697793 16.95315262 0.87576114 24.625 5.625 C26.51126446 8.88309316 26.20103389 11.21549927 25.62890625 14.87109375 C24.78114777 17.74083519 23.37895435 19.23496935 21 21 C21.20496094 21.66386719 21.40992187 22.32773438 21.62109375 23.01171875 C21.89050781 23.89472656 22.15992187 24.77773437 22.4375 25.6875 C22.70433594 26.55761719 22.97117187 27.42773438 23.24609375 28.32421875 C23.96344529 30.87025921 24.517541 33.4003423 25 36 C17.59687722 35.51454933 17.59687722 35.51454933 15.1875 33.4375 C14.12781104 31.26234897 13.34947127 29.15721668 12.5625 26.875 C11.45767666 23.64575734 11.45767666 23.64575734 8.8125 21.5 C8.214375 21.335 7.61625 21.17 7 21 C6.92557943 24.86986958 6.95297814 28.2735915 8 32 C6.39592672 32.02708567 4.7917215 32.04643483 3.1875 32.0625 C2.29417969 32.07410156 1.40085937 32.08570313 0.48046875 32.09765625 C-2 32 -2 32 -5 31 C-5 29.68 -5 28.36 -5 27 C-4.34 27 -3.68 27 -3 27 C-2.49055007 24.18892806 -1.9922984 21.37658411 -1.5 18.5625 C-1.35691406 17.77939453 -1.21382813 16.99628906 -1.06640625 16.18945312 C-0.12028397 10.71545995 0.13345719 5.55515562 0 0 Z " fill="#193068" transform="translate(79,230)"/>
<path d="M0 0 C4.02511566 1.21689543 7.59257117 2.49453762 11 5 C11 5.99 11 6.98 11 8 C10.01 8.33 9.02 8.66 8 9 C5.72638745 12.76865248 5.72638745 12.76865248 5 17 C9.455 18.98 9.455 18.98 14 21 C14.33 19.576875 14.66 18.15375 15 16.6875 C15.185625 15.88699219 15.37125 15.08648437 15.5625 14.26171875 C16.09495823 11.89304062 16.09495823 11.89304062 16 9 C20.77576339 9.4682121 24.04476345 10.24331998 28 13 C27.3690679 16.65940618 27.3690679 16.65940618 25.68359375 18.21484375 C23.30611768 20.73574065 21.90508807 23.676857 20.375 26.75 C20.06304687 27.34554687 19.75109375 27.94109375 19.4296875 28.5546875 C17.30241516 32.79089362 16.44099312 36.3516941 16 41 C11.29761275 40.53898164 7.76737643 39.96823597 4 37 C4 36.01 4 35.02 4 34 C5.98 33.505 5.98 33.505 8 33 C8.66 30.36 9.32 27.72 10 25 C5.545 23.02 5.545 23.02 1 21 C0.34 24.96 -0.32 28.92 -1 33 C-5.99875355 32.16687441 -8.71772212 31.34505694 -13 29 C-12.61168753 26.28181269 -12.18082978 25.17088988 -10.15234375 23.25390625 C-7.61021804 20.59182542 -6.34056325 18.03038387 -4.8125 14.6875 C-4.30332031 13.59824219 -3.79414063 12.50898438 -3.26953125 11.38671875 C-1.96026978 7.894012 -1.45369381 4.68912643 -1 1 C-0.67 0.67 -0.34 0.34 0 0 Z " fill="#182F68" transform="translate(20,206)"/>
<path d="M0 0 C3.96 0 7.92 0 12 0 C10.84648358 4.61406566 9.37244694 5.78814577 6 9 C4.97186389 10.31175986 3.95915568 11.6369893 3 13 C4.5692787 16.65880741 6.8319796 19.25527628 9.5 22.1875 C10.2940625 23.06792969 11.088125 23.94835937 11.90625 24.85546875 C13.81356089 27.04326835 13.81356089 27.04326835 16 28 C15.67 29.32 15.34 30.64 15 32 C10.38 32 5.76 32 1 32 C1 30.02 1 28.04 1 26 C-0.4166747 24.2488427 -0.4166747 24.2488427 -2 23 C-2 22.34 -2 21.68 -2 21 C-2.99 21.33 -3.98 21.66 -5 22 C-5 24.31 -5 26.62 -5 29 C-4.34 29 -3.68 29 -3 29 C-3.33 30.32 -3.66 31.64 -4 33 C-7.96 33 -11.92 33 -16 33 C-15.67 31.68 -15.34 30.36 -15 29 C-14.91869904 25.28688512 -15.13915366 21.58413667 -15.3125 17.875 C-15.34794922 16.86050781 -15.38339844 15.84601563 -15.41992188 14.80078125 C-15.48469727 13.34865234 -15.48469727 13.34865234 -15.55078125 11.8671875 C-15.58856689 10.98144043 -15.62635254 10.09569336 -15.6652832 9.18310547 C-15.81115368 6.79432832 -15.81115368 6.79432832 -18 5 C-17.67 3.68 -17.34 2.36 -17 1 C-13.04 1 -9.08 1 -5 1 C-5.66 5.95 -6.32 10.9 -7 16 C-6.34 16 -5.68 16 -5 16 C-4.7525 15.443125 -4.505 14.88625 -4.25 14.3125 C-3 12 -3 12 -0.8125 9.6875 C1.3914021 7.01116715 1.3914021 7.01116715 0.75 3.1875 C0.5025 2.135625 0.255 1.08375 0 0 Z " fill="#172E67" transform="translate(156,235)"/>
<path d="M0 0 C8.67600366 -0.11550892 17.38844074 -0.22160473 26 1 C27 2 27 2 27.09765625 3.84765625 C27.06510417 5.8984375 27.03255208 7.94921875 27 10 C24.19216596 9.61002305 22.4006401 9.33156422 20.1875 7.5 C16.92341307 5.26176896 13.91772499 5.32647708 10 5 C10 7.97 10 10.94 10 14 C11.0725 13.67 12.145 13.34 13.25 13 C17 12 17 12 21 12 C21 14.97 21 17.94 21 21 C19.68 21.33 18.36 21.66 17 22 C16.34 21.34 15.68 20.68 15 20 C13.01178687 19.60235737 11.01055661 19.26224651 9 19 C9 21.97 9 24.94 9 28 C14.60475769 27.5817345 18.30532277 27.27204777 23 24 C23.66 24 24.32 24 25 24 C25 26.97 25 29.94 25 33 C16.09 32.67 7.18 32.34 -2 32 C-1.67 30.35 -1.34 28.7 -1 27 C-0.1320973 21.87148405 0.12571228 16.99104447 0.0625 11.8125 C0.05798828 11.11447266 0.05347656 10.41644531 0.04882812 9.69726562 C0.0361794 7.79814946 0.018319 5.89906993 0 4 C0 2.68 0 1.36 0 0 Z " fill="#1C326A" transform="translate(110,235)"/>
<path d="M0 0 C3.80285865 2.0090574 7.09334467 4.08076405 9 8 C9.57699515 12.26335307 9.49437222 15.82911842 7.8125 19.8125 C2.98698954 25.63639193 2.98698954 25.63639193 -1.11328125 26.38671875 C-6.53240636 26.65084418 -9.82498649 25.67798809 -14 22 C-16.88516342 18.5378039 -17.53917865 15.51203116 -17.3515625 10.9921875 C-16.57919747 6.61545234 -14.06326048 3.8860504 -10.75 1.125 C-7.10441212 -0.36637686 -3.84486501 -0.68604454 0 0 Z " fill="#2AC673" transform="translate(197,168)"/>
<path d="M0 0 C1.64574566 -0.02688151 3.29161413 -0.04634123 4.9375 -0.0625 C5.85402344 -0.07410156 6.77054688 -0.08570313 7.71484375 -0.09765625 C10 0 10 0 11 1 C11.21719496 2.99906088 11.37176152 5.00498685 11.5 7.01171875 C11.62375 8.86120117 11.62375 8.86120117 11.75 10.74804688 C11.87375 12.69807617 11.87375 12.69807617 12 14.6875 C12.16399374 17.23324651 12.33057202 19.77882813 12.5 22.32421875 C12.5721875 23.45947998 12.644375 24.59474121 12.71875 25.7644043 C12.99000965 28.88506766 13.44085182 31.91915177 14 35 C8.72250715 34.46148032 4.74354436 33.22656164 0 31 C0.33 30.01 0.66 29.02 1 28 C1.66 28 2.32 28 3 28 C3 26.68 3 25.36 3 24 C-0.3 23.34 -3.6 22.68 -7 22 C-6.67 23.98 -6.34 25.96 -6 28 C-10.17587745 29.39195915 -12.13474776 27.82323219 -16 26 C-15.8125 24.1875 -15.8125 24.1875 -15 22 C-14.25621094 21.57203125 -13.51242188 21.1440625 -12.74609375 20.703125 C-9.53277874 18.71022977 -7.62305525 16.49696597 -5.25 13.5625 C-4.08210938 12.14130859 -4.08210938 12.14130859 -2.890625 10.69140625 C-0.1544762 6.79635146 0 4.74905678 0 0 Z " fill="#1A3169" transform="translate(56,224)"/>
<path d="M0 0 C0.99 0.495 0.99 0.495 2 1 C-21.96486352 21.54131158 -59.99970377 25.18823518 -90.16577148 25.18530273 C-92.66472656 25.18748016 -95.16323251 25.20566544 -97.66210938 25.22460938 C-107.6208884 25.25823018 -117.1663825 24.62832676 -127 23 C-127 22.67 -127 22.34 -127 22 C-125.82703369 21.97812622 -125.82703369 21.97812622 -124.63037109 21.95581055 C-95.70550555 21.36048422 -67.3613478 19.02781466 -39 13 C-38.07477539 12.80680176 -37.14955078 12.61360352 -36.19628906 12.41455078 C-25.58539239 10.15081483 -15.79720351 7.00722339 -5.91210938 2.50268555 C-3.96301016 1.61915837 -1.98370309 0.8028263 0 0 Z " fill="#22866F" transform="translate(232,197)"/>
<path d="M0 0 C0.5775 0.37125 1.155 0.7425 1.75 1.125 C1.42 1.785 1.09 2.445 0.75 3.125 C-0.10207031 3.24359375 -0.95414062 3.3621875 -1.83203125 3.484375 C-6.163936 4.29629772 -9.18254178 6.14597645 -12.9375 8.375 C-29.9810113 18.09963835 -47.58262458 26.43790736 -66 33.1875 C-67.79969238 33.84866821 -67.79969238 33.84866821 -69.63574219 34.52319336 C-86.07185688 40.38885732 -102.65905821 44.77119786 -120.25 44.125 C-120.58 42.475 -120.91 40.825 -121.25 39.125 C-120.69352783 39.09059814 -120.13705566 39.05619629 -119.5637207 39.02075195 C-87.79531216 36.92581038 -59.79597402 26.80530642 -31.25 13.125 C-28.94011166 12.02472385 -26.63021566 10.92446379 -24.3203125 9.82421875 C-14.09424474 5.07627988 -14.09424474 5.07627988 -4.07714844 -0.08178711 C-2.25 -0.875 -2.25 -0.875 0 0 Z " fill="#F2F8F3" transform="translate(210.25,73.875)"/>
<path d="M0 0 C4.76298335 3.04469189 8.73960535 7.94392863 10.8515625 13.18359375 C11.1171875 15.47265625 11.1171875 15.47265625 11.1015625 17.80859375 C11.10929687 18.97261719 11.10929687 18.97261719 11.1171875 20.16015625 C10.8515625 22.18359375 10.8515625 22.18359375 8.8515625 24.18359375 C6.2265625 24.30859375 6.2265625 24.30859375 3.8515625 24.18359375 C3.53703125 23.49652344 3.2225 22.80945313 2.8984375 22.1015625 C2.47046875 21.20050781 2.0425 20.29945312 1.6015625 19.37109375 C1.18390625 18.47777344 0.76625 17.58445312 0.3359375 16.6640625 C-1.8797729 12.96149381 -4.09533382 11.53462831 -8.1484375 10.18359375 C-11.2486842 10.15382458 -14.33480031 10.24984717 -17.43359375 10.34375 C-20.1484375 10.18359375 -20.1484375 10.18359375 -22.1484375 8.18359375 C-22.265625 6.30859375 -22.265625 6.30859375 -22.0234375 4.18359375 C-21.95898438 3.48234375 -21.89453125 2.78109375 -21.828125 2.05859375 C-21.1484375 0.18359375 -21.1484375 0.18359375 -19.421875 -1.046875 C-13.32688204 -3.10995681 -5.88754848 -2.53188813 0 0 Z " fill="#30CF76" transform="translate(117.1484375,68.81640625)"/>
<path d="M0 0 C3.27838844 16.88955472 5.66589595 39.90088924 -3.25 55.4375 C-4.12973285 56.65261487 -5.04662336 57.84176557 -6 59 C-6.45761719 59.57878906 -6.91523438 60.15757812 -7.38671875 60.75390625 C-11.06275167 64.89291561 -15.37735905 67.62860404 -20.125 70.375 C-21.02206665 70.89416992 -21.02206665 70.89416992 -21.93725586 71.42382812 C-25.26244158 73.26720285 -28.22330125 74.50119073 -32 75 C-29.46510958 72.91244318 -26.94987879 70.96769967 -24.1875 69.1875 C-13.73801822 62.01628702 -6.42176776 53.70459965 -4 41 C-3.65709883 36.09461693 -3.60828803 31.22652256 -3.66381836 26.3112793 C-3.68771112 24.04245262 -3.68432228 21.77478249 -3.67773438 19.50585938 C-3.33966846 11.87276245 -3.33966846 11.87276245 -6 5 C-9.63 5.66 -13.26 6.32 -17 7 C-14.50157188 4.50157188 -12.6176956 2.98637628 -9.625 1.25 C-8.87476563 0.80140625 -8.12453125 0.3528125 -7.3515625 -0.109375 C-4.49176751 -1.19248672 -2.89496377 -0.83882342 0 0 Z " fill="#29C173" transform="translate(211,80)"/>
<path d="M0 0 C4.53245556 2.64817628 8.03153938 6.08840407 10 11 C10.45304906 16.61780838 10.21244804 20.18132794 7 25 C2.84415562 29.10043312 -0.33761626 31.16521107 -6.1875 31.375 C-11.02251727 31.32430519 -13.94985232 30.63507882 -17.62890625 27.4765625 C-21.63015094 23.16752976 -22.56261239 18.88372141 -22.3515625 13.17578125 C-21.59131311 8.47068227 -18.82928207 5.73055802 -15.375 2.6875 C-10.51480903 -0.76579359 -5.84077821 -0.97477321 0 0 Z M-16 9 C-17.74221711 12.48443422 -17.58675154 16.19887045 -17 20 C-15.29748281 23.07469523 -13.18773492 25.40613254 -10 27 C-4.87629602 27.60728845 -4.87629602 27.60728845 -0.17578125 25.953125 C2.67246044 23.60832555 4.7898041 21.75392971 5.23828125 18.01171875 C5.3713075 13.84589668 5.38831668 11.62130669 3.125 8 C-0.59042906 4.50312559 -3.58097235 4.67137625 -8.515625 4.70703125 C-11.97198834 5.11462127 -13.68663869 6.46276502 -16 9 Z " fill="#259D71" transform="translate(117,170)"/>
<path d="M0 0 C6.19548615 17.81202268 7.86254082 42.40789361 0 60 C-0.99 60.33 -1.98 60.66 -3 61 C-3.70394612 62.31403276 -4.36345658 63.6520257 -5 65 C-10.7594634 74.11915038 -22.95086107 78.4560744 -33 81 C-35.19384766 80.54907227 -35.19384766 80.54907227 -37 80 C-35.31583984 79.25556641 -35.31583984 79.25556641 -33.59765625 78.49609375 C-21.29013225 72.95324123 -9.89091611 67.08312992 -3.25 54.75 C-0.39567732 46.18703197 0.33540235 37.66771011 0.25 28.6875 C0.24419922 27.19561157 0.24419922 27.19561157 0.23828125 25.67358398 C0.14834471 17.97464151 -0.53064321 10.56981132 -2 3 C-6.05788813 3.52699846 -9.14110703 4.33257473 -12.6875 6.375 C-13.43386719 6.79523438 -14.18023437 7.21546875 -14.94921875 7.6484375 C-16.90900015 8.94002677 -18.35610358 10.34201304 -20 12 C-22.1875 12.6875 -22.1875 12.6875 -24 13 C-23.63748643 10.42717963 -23.35433934 9.29160671 -21.31347656 7.61206055 C-18.96644235 6.28849148 -16.61972452 4.97017799 -14.25 3.6875 C-13.43789062 3.22021484 -12.62578125 2.75292969 -11.7890625 2.27148438 C-10.99757812 1.83513672 -10.20609375 1.39878906 -9.390625 0.94921875 C-8.66907227 0.55049561 -7.94751953 0.15177246 -7.20410156 -0.2590332 C-4.45841649 -1.18206756 -2.75269425 -0.76909963 0 0 Z " fill="#163B67" transform="translate(212,77)"/>
<path d="M0 0 C10.42077336 7.23929411 17.44178725 17.27201923 21.13671875 29.484375 C21.46397091 32.00039157 21.42461807 33.95086095 21.13671875 36.484375 C20.80671875 36.484375 20.47671875 36.484375 20.13671875 36.484375 C20.00136719 35.89011719 19.86601562 35.29585937 19.7265625 34.68359375 C17.28164252 25.26991983 12.50534022 16.93191879 5.13671875 10.484375 C4.42322266 9.76701172 4.42322266 9.76701172 3.6953125 9.03515625 C-6.20386597 -0.43466026 -20.29114448 -2.95823024 -33.5234375 -2.78515625 C-38.81487291 -2.35812813 -43.79500118 -1.04980707 -48.86328125 0.484375 C-48.11328125 -4.265625 -48.11328125 -4.265625 -45.86328125 -6.515625 C-30.0912167 -11.32397333 -13.84154974 -9.00480853 0 0 Z " fill="#82EE5F" transform="translate(138.86328125,40.515625)"/>
<path d="M0 0 C0.99 0.495 0.99 0.495 2 1 C-10.38831783 18.87911071 -29.69315806 24.27421654 -50.25 28.00390625 C-52.16642975 28.33730224 -54.08311813 28.66921341 -56 29 C-57.14984375 29.20608887 -58.2996875 29.41217773 -59.484375 29.62451172 C-63.21407878 30.28202938 -66.94874011 30.89628121 -70.6875 31.5 C-71.86916748 31.70890869 -73.05083496 31.91781738 -74.26831055 32.13305664 C-80.91945726 33.14731747 -85.11313503 33.18103924 -91.07592773 29.96972656 C-93.80729716 28.59312469 -96.16188432 28.53517065 -99.1875 28.625 C-100.20585938 28.65078125 -101.22421875 28.6765625 -102.2734375 28.703125 C-105.1720592 28.88945601 -105.1720592 28.88945601 -108.3125 30.375 C-109.199375 30.58125 -110.08625 30.7875 -111 31 C-113.66826502 29.319375 -115.8281596 27.27464941 -118 25 C-115 25 -115 25 -113.3046875 26.03125 C-109.36839974 27.68582519 -105.17420075 26.71670583 -101.01953125 26.27734375 C-97.74476894 25.9874872 -95.26428991 25.90972119 -92.13183594 26.97973633 C-82.96847601 29.96490012 -72.20034836 27.7614016 -62.875 26.3125 C-61.70283936 26.13315918 -60.53067871 25.95381836 -59.32299805 25.76904297 C-28.1436404 20.91338423 -28.1436404 20.91338423 -2.5078125 4.22265625 C-1.260194 2.45730389 -1.260194 2.45730389 0 0 Z " fill="#24726F" transform="translate(209,138)"/>
<path d="M0 0 C0.66 0 1.32 0 2 0 C2.20753906 1.2375 2.41507812 2.475 2.62890625 3.75 C5.5563408 20.48732447 10.20500109 36.50710664 15.48828125 52.640625 C15.69720505 53.28092148 15.90612885 53.92121796 16.12138367 54.58091736 C17.14835886 57.72558572 18.18632125 60.86531527 19.24291992 64.00024414 C19.61650635 65.13067139 19.99009277 66.26109863 20.375 67.42578125 C20.71273437 68.43036377 21.05046875 69.43494629 21.3984375 70.4699707 C22 73 22 73 21 76 C13.22275972 57.03370559 6.03305194 37.8703222 -0.125 18.3125 C-0.43252197 17.36270264 -0.74004395 16.41290527 -1.05688477 15.43432617 C-2.52352781 10.6468183 -3.60212578 6.9385916 -2 2 C-1.34 1.34 -0.68 0.68 0 0 Z " fill="#1E856C" transform="translate(72,68)"/>
<path d="M0 0 C-0.66 1.98 -1.32 3.96 -2 6 C-3.12474731 6.20363159 -3.12474731 6.20363159 -4.2722168 6.41137695 C-7.74456237 7.041912 -11.21602582 7.67718564 -14.6875 8.3125 C-15.86634766 8.52583984 -17.04519531 8.73917969 -18.25976562 8.95898438 C-25.31908611 10.25480485 -32.29957681 11.72002538 -39.26879883 13.43823242 C-42 14 -42 14 -46 14 C-46 12.35 -46 10.7 -46 9 C-41.92980023 8.03609656 -37.85872701 7.0759924 -33.78686523 6.11914062 C-32.40674682 5.79429359 -31.02685652 5.46847564 -29.6472168 5.14160156 C-7.26291014 -0.15973078 -7.26291014 -0.15973078 0 0 Z " fill="#38C77C" transform="translate(178,172)"/>
<path d="M0 0 C4.15464591 4.58076344 4.79136741 8.62158842 5.3125 14.5625 C5 18 5 18 3.375 20.375 C0.56326646 22.29881769 -1.66218108 22.53361982 -5 23 C-5.64687807 20.27107717 -6.29253718 17.54187553 -6.9375 14.8125 C-7.11990234 14.04357422 -7.30230469 13.27464844 -7.49023438 12.48242188 C-8.39120113 8.66559908 -9.26637997 4.85343574 -10 1 C-6.77287484 -0.61356258 -3.47714882 -0.72985698 0 0 Z " fill="#F6F7F9" transform="translate(205,233)"/>
<path d="M0 0 C6.45103563 6.15780673 11.0120825 13.8431868 11.99609375 22.88671875 C12 24.8125 12 24.8125 11.75 27.625 C11.42 27.625 11.09 27.625 10.75 27.625 C10.5025 26.47 10.255 25.315 10 24.125 C7.73851948 15.26623494 3.15833574 7.34676414 -4.4921875 2.08203125 C-11.74205787 -2.07993137 -18.0059943 -3.70677036 -26.3125 -3.625 C-27.10205078 -3.63273437 -27.89160156 -3.64046875 -28.70507812 -3.6484375 C-33.00209837 -3.63403006 -36.33414878 -3.36050203 -40.25 -1.375 C-39.9375 -3.75 -39.9375 -3.75 -39.25 -6.375 C-27.17598074 -14.42434617 -10.30924486 -8.00949024 0 0 Z " fill="#84EE61" transform="translate(133.25,58.375)"/>
<path d="M0 0 C2.13586678 3.20380017 2.23132175 4.01939967 2.125 7.6875 C2.10695312 8.49574219 2.08890625 9.30398437 2.0703125 10.13671875 C2.04710937 10.75160156 2.02390625 11.36648437 2 12 C-0.7881022 13.5066972 -3.58103958 15.00419804 -6.375 16.5 C-7.1690625 16.92925781 -7.963125 17.35851562 -8.78125 17.80078125 C-9.92207031 18.40986328 -9.92207031 18.40986328 -11.0859375 19.03125 C-11.7876709 19.40830078 -12.4894043 19.78535156 -13.21240234 20.17382812 C-15 21 -15 21 -17 21 C-17.66 17.37 -18.32 13.74 -19 10 C-12.73 6.7 -6.46 3.4 0 0 Z " fill="#DDF6D9" transform="translate(201,88)"/>
<path d="M0 0 C3.6875 0.3125 3.6875 0.3125 6.125 1.75 C8.45018305 5.56330021 8.57676688 8.96669141 7.6875 13.3125 C5.2297681 16.85452539 3.87425879 18.0945239 -0.375 18.875 C-3.3125 18.3125 -3.3125 18.3125 -5.6875 16.8125 C-7.92770766 13.36602668 -7.98559392 10.25714341 -7.3125 6.3125 C-4.42781987 0.41771886 -4.42781987 0.41771886 0 0 Z " fill="#33D077" transform="translate(105.3125,82.6875)"/>
<path d="M0 0 C2.28062828 3.42094242 2.21925007 4.68187222 2.125 8.6875 C2.10695313 9.68136719 2.08890625 10.67523438 2.0703125 11.69921875 C2.03550781 12.83810547 2.03550781 12.83810547 2 14 C0.6293189 14.51172094 -0.74684075 15.00877492 -2.125 15.5 C-2.89070313 15.7784375 -3.65640625 16.056875 -4.4453125 16.34375 C-7 17 -7 17 -13 17 C-13 12.38 -13 7.76 -13 3 C-8.71 2.01 -4.42 1.02 0 0 Z " fill="#63CF98" transform="translate(125,119)"/>
<path d="M0 0 C0.66 3.96 1.32 7.92 2 12 C-3.12181701 14.1170177 -7.55363233 15.91072647 -13 17 C-13.33 12.38 -13.66 7.76 -14 3 C-4.5 0 -4.5 0 0 0 Z " fill="#D8F3D6" transform="translate(144,114)"/>
<path d="M0 0 C0 4.62 0 9.24 0 14 C-8.75 17 -8.75 17 -11 17 C-12.32 12.38 -13.64 7.76 -15 3 C-3.375 0 -3.375 0 0 0 Z " fill="#E0F9DB" transform="translate(108,124)"/>
<path d="M0 0 C0.66 3.63 1.32 7.26 2 11 C0.25447527 11.84266711 -1.4966208 12.67380038 -3.25 13.5 C-4.22453125 13.9640625 -5.1990625 14.428125 -6.203125 14.90625 C-9 16 -9 16 -13 16 C-13.33 12.04 -13.66 8.08 -14 4 C-4.5 0 -4.5 0 0 0 Z " fill="#63CE98" transform="translate(162,108)"/>
<path d="M0 0 C4.6 2.2 4.6 2.2 6 5 C6.25 8 6.25 8 6 11 C2.31836765 13.45442157 -0.72517149 13.81504512 -5 13 C-8.20147328 10.6655924 -9.75157869 9.3042119 -10.5 5.375 C-10 3 -10 3 -8.9375 1.1875 C-5.88811689 -0.68147675 -3.49856519 -0.36192054 0 0 Z " fill="#84EF5D" transform="translate(82,183)"/>
<path d="M0 0 C2.5 0.9375 2.5 0.9375 5 3 C5.90729125 7.20432283 5.47460748 10.87592964 3.8125 14.8125 C-1.01301046 20.63639193 -1.01301046 20.63639193 -5.11328125 21.38671875 C-10.53240636 21.65084418 -13.82498649 20.67798809 -18 17 C-21.53295958 12.7604485 -21.26876031 9.28561944 -21 4 C-19 3 -17 2 -15 1 C-15.33 1.99 -15.66 2.98 -16 4 C-16.55584017 9.54515027 -16.55584017 9.54515027 -14.4375 14.4375 C-11.16434238 16.53567796 -8.88582276 17 -5 17 C-2.19810554 15.23358828 -0.48475089 13.96950178 1 11 C1.25797575 7.04437178 1.09440189 4.40340307 -1 1 C-0.67 0.67 -0.34 0.34 0 0 Z " fill="#229A6E" transform="translate(201,173)"/>
<path d="M0 0 C2 1.0625 2 1.0625 3 3 C3.50030235 6.93094707 3.5996142 9.1005787 1.375 12.4375 C-1.71685231 14.47161336 -3.36367425 14.60605429 -7 14 C-9.375 12.4375 -9.375 12.4375 -11 10 C-11.42213381 6.56262469 -11.60856522 4.17909511 -10 1.0625 C-6.75978228 -0.65886567 -3.58042244 -0.52960415 0 0 Z " fill="#0F3363" transform="translate(115,179)"/>
<path d="M0 0 C0.66 3.63 1.32 7.26 2 11 C0.23244474 11.84026396 -1.53917263 12.67198722 -3.3125 13.5 C-4.29863281 13.9640625 -5.28476563 14.428125 -6.30078125 14.90625 C-9 16 -9 16 -12 16 C-12.66 12.04 -13.32 8.08 -14 4 C-4.5 0 -4.5 0 0 0 Z " fill="#5FCC95" transform="translate(179,101)"/>
<path d="M0 0 C0.6233868 3.5048191 0.85137119 6.52183721 0 10 C-4.34051319 14.15545255 -10.24234486 16.4848276 -16 18 C-16.33 15.03 -16.66 12.06 -17 9 C-14.35559624 7.49743011 -11.70958148 5.9978388 -9.0625 4.5 C-8.30775391 4.07074219 -7.55300781 3.64148438 -6.77539062 3.19921875 C-6.05673828 2.79316406 -5.33808594 2.38710937 -4.59765625 1.96875 C-3.93258057 1.59169922 -3.26750488 1.21464844 -2.58227539 0.82617188 C-1 0 -1 0 0 0 Z " fill="#51C78C" transform="translate(203,104)"/>
<path d="M0 0 C0.33 3.3 0.66 6.6 1 10 C-1.10251861 10.67184618 -3.20707763 11.33730968 -5.3125 12 C-7.07013672 12.556875 -7.07013672 12.556875 -8.86328125 13.125 C-12 14 -12 14 -15 14 C-15 10.37 -15 6.74 -15 3 C-4.5 0 -4.5 0 0 0 Z " fill="#33CD79" transform="translate(128,137)"/>
<path d="M0 0 C0 0.99 0 1.98 0 3 C-0.58007812 2.66226563 -1.16015625 2.32453125 -1.7578125 1.9765625 C-2.53898437 1.53054687 -3.32015625 1.08453125 -4.125 0.625 C-5.27355469 -0.03628906 -5.27355469 -0.03628906 -6.4453125 -0.7109375 C-12.40377302 -3.71750015 -17.44438012 -4.32453316 -24 -4.25 C-24.83362061 -4.24540771 -25.66724121 -4.24081543 -26.52612305 -4.23608398 C-33.81659336 -4.13060722 -40.82015045 -3.28917351 -48 -2 C-49.99981266 -1.66554459 -51.9997581 -1.3318787 -54 -1 C-51.25 -5.875 -51.25 -5.875 -49 -7 C-33.5794411 -9.2304737 -12.5248493 -11.09343795 0 0 Z " fill="#E2F0EC" transform="translate(70,52)"/>
<path d="M0 0 C3.00370584 2.34664519 3.92976666 3.4682333 4.4375 7.3125 C3.50286787 15.19011367 3.50286787 15.19011367 1 18 C-2.86385804 20.08700903 -6.84277869 21.60136895 -11 23 C-10.40513614 19.02946289 -9.15986135 16.11033727 -7.1875 12.625 C-6.38505859 11.19607422 -6.38505859 11.19607422 -5.56640625 9.73828125 C-5.04949219 8.83464844 -4.53257813 7.93101563 -4 7 C-3.57589844 6.25105469 -3.15179688 5.50210938 -2.71484375 4.73046875 C-1.81665526 3.14978577 -0.90952906 1.57418491 0 0 Z " fill="#E2F9DA" transform="translate(59,60)"/>
<path d="M0 0 C0.33 0.99 0.66 1.98 1 3 C1.66 3 2.32 3 3 3 C4.0078125 4.57421875 4.0078125 4.57421875 5.125 6.6875 C7.5732077 10.83401395 10.24242497 12.80871602 14.42578125 15.08984375 C15.20501953 15.54037109 15.20501953 15.54037109 16 16 C16 16.33 16 16.66 16 17 C9.07 16.67 2.14 16.34 -5 16 C-5.66 13.69 -6.32 11.38 -7 9 C-7.66 8.34 -8.32 7.68 -9 7 C-6.36 6.34 -3.72 5.68 -1 5 C-0.67 3.35 -0.34 1.7 0 0 Z " fill="#DAF8D0" transform="translate(88,189)"/>
<path d="M0 0 C0.33 2.64 0.66 5.28 1 8 C-1.1234016 8.83739781 -3.2487728 9.66980283 -5.375 10.5 C-6.55835938 10.9640625 -7.74171875 11.428125 -8.9609375 11.90625 C-12 13 -12 13 -14 13 C-14.33 9.7 -14.66 6.4 -15 3 C-13.4447088 2.29634398 -11.88035173 1.61270622 -10.3125 0.9375 C-9.44238281 0.55464844 -8.57226562 0.17179688 -7.67578125 -0.22265625 C-4.67786136 -1.0935848 -2.96719847 -0.85006226 0 0 Z " fill="#5ECE95" transform="translate(147,132)"/>
<path d="M0 0 C0.33 3.3 0.66 6.6 1 10 C-0.95649397 10.83764268 -2.91525556 11.66999059 -4.875 12.5 C-5.96554688 12.9640625 -7.05609375 13.428125 -8.1796875 13.90625 C-11 15 -11 15 -13 15 C-14.1577506 11.52674819 -14.06866652 8.63932552 -14 5 C-12.04350603 4.16235732 -10.08474444 3.33000941 -8.125 2.5 C-6.48917969 1.80390625 -6.48917969 1.80390625 -4.8203125 1.09375 C-2 0 -2 0 0 0 Z " fill="#5DD094" transform="translate(165,123)"/>
<path d="M0 0 C0.98120464 3.05263664 0.98120464 4.94736336 0 8 C-0.66 8 -1.32 8 -2 8 C-2.2475 8.556875 -2.495 9.11375 -2.75 9.6875 C-8.25875145 19.87869017 -18.52333562 23.45358176 -28.8984375 27.21484375 C-32.00405579 28.00102672 -33.06263743 27.8929614 -36 27 C-34.87722656 26.50371094 -33.75445312 26.00742188 -32.59765625 25.49609375 C-21.27880492 20.39850275 -8.67603969 14.68734261 -2.96484375 2.85546875 C-2 1 -2 1 0 0 Z " fill="#103663" transform="translate(211,130)"/>
<path d="M0 0 C1.49821059 3.37097383 2 5.20442119 2 9 C-0.1234016 9.83739781 -2.2487728 10.66980283 -4.375 11.5 C-5.55835938 11.9640625 -6.74171875 12.428125 -7.9609375 12.90625 C-11 14 -11 14 -13 14 C-13.33 11.03 -13.66 8.06 -14 5 C-12.04350603 4.16235732 -10.08474444 3.33000941 -8.125 2.5 C-6.48917969 1.80390625 -6.48917969 1.80390625 -4.8203125 1.09375 C-2 0 -2 0 0 0 Z " fill="#DDF6D8" transform="translate(167,137)"/>
<path d="M0 0 C0.680625 0.309375 1.36125 0.61875 2.0625 0.9375 C6.8903309 2.68373671 11.05445461 3.39093464 16 2 C19.63304657 1.79816408 22.41228108 1.79554117 25.86328125 2.99609375 C36.14429411 6.28652999 48.48262409 3.41071389 59 2 C58.67 2.99 58.34 3.98 58 5 C54.67612922 5.71991671 51.34095311 6.36442444 48 7 C46.85660156 7.2371875 45.71320313 7.474375 44.53515625 7.71875 C37.62106087 8.97995307 33.45630908 9.38307007 27.28515625 5.96875 C22.76852063 4.05400533 17.80104778 4.47724981 13 5 C11.906875 5.45375 10.81375 5.9075 9.6875 6.375 C7 7 7 7 5.08984375 5.83203125 C3.26428752 4.30408061 1.58433057 2.77651268 0 1 C0 0.67 0 0.34 0 0 Z " fill="#277871" transform="translate(91,162)"/>
<path d="M0 0 C1.64350079 3.28700157 2.41321669 5.47930015 3 9 C1.2335343 10.0076952 -0.53833823 11.00591714 -2.3125 12 C-3.79169922 12.8353125 -3.79169922 12.8353125 -5.30078125 13.6875 C-8 15 -8 15 -11 15 C-11.66 12.03 -12.32 9.06 -13 6 C-8.71 4.02 -4.42 2.04 0 0 Z " fill="#7DD2AA" transform="translate(181,115)"/>
<path d="M0 0 C4.74868792 3.03555367 8.76834629 7.94550683 10.8515625 13.18359375 C11.046875 15.54296875 11.046875 15.54296875 10.9765625 17.93359375 C10.95851562 18.7328125 10.94046875 19.53203125 10.921875 20.35546875 C10.89867187 20.95875 10.87546875 21.56203125 10.8515625 22.18359375 C10.5215625 22.18359375 10.1915625 22.18359375 9.8515625 22.18359375 C9.8103125 21.19359375 9.7690625 20.20359375 9.7265625 19.18359375 C8.88470392 13.49816525 5.49632859 9.46974749 1.23828125 5.7890625 C-5.34374653 1.65887656 -13.69887332 2.85812735 -21.1484375 3.18359375 C-20.8359375 1.24609375 -20.8359375 1.24609375 -20.1484375 -0.81640625 C-13.78110806 -2.9388494 -6.19113246 -2.66244174 0 0 Z " fill="#80ED61" transform="translate(117.1484375,68.81640625)"/>
<path d="M0 0 C2.14201526 3.21302289 2.65325876 4.26709281 2 8 C-0.3832946 9.81883009 -1.95818337 11 -5 11 C-5 11.66 -5 12.32 -5 13 C-6.98 13.66 -8.96 14.32 -11 15 C-11.66 12.03 -12.32 9.06 -13 6 C-8.71 4.02 -4.42 2.04 0 0 Z " fill="#DFF8DA" transform="translate(184,128)"/>
<path d="M0 0 C2.9375 0.75 2.9375 0.75 4.9375 2.75 C5.26765665 5.85347254 5.44281294 7.90781176 3.8125 10.625 C1.05659116 12.27854531 -0.91325452 12.14365568 -4.0625 11.75 C-6 10.6875 -6 10.6875 -7.0625 8.75 C-6.9375 5.1875 -6.9375 5.1875 -6.0625 1.75 C-3.0625 -0.25 -3.0625 -0.25 0 0 Z " fill="#0F3463" transform="translate(194.0625,175.25)"/>
<path d="M0 0 C0 2.64 0 5.28 0 8 C-5.1468192 11.16727335 -9.158256 11.35050464 -15 11 C-15 9.02 -15 7.04 -15 5 C-13.3962669 4.35309078 -11.79199694 3.70751236 -10.1875 3.0625 C-8.84751953 2.52302734 -8.84751953 2.52302734 -7.48046875 1.97265625 C-2.4497992 0 -2.4497992 0 0 0 Z " fill="#DAF1D7" transform="translate(149,144)"/>
<path d="M0 0 C11.57246856 -0.42028837 23.4666312 -0.53813802 32.92675781 7.08251953 C30.92675781 8.08251953 30.92675781 8.08251953 28.46582031 7.34033203 C27.50417969 6.96650391 26.54253906 6.59267578 25.55175781 6.20751953 C19.24848996 3.77795807 14.20366502 2.91538332 7.42675781 2.95751953 C6.22768799 2.96477051 6.22768799 2.96477051 5.00439453 2.97216797 C0.35093961 3.01893636 -4.3004272 3.09152172 -8.94824219 3.33251953 C-9.85316406 3.37892578 -10.75808594 3.42533203 -11.69042969 3.47314453 C-15.92050326 4.55493384 -17.73662575 7.57759487 -20.07324219 11.08251953 C-19.5833501 4.59144936 -19.5833501 4.59144936 -17.38183594 2.39501953 C-12.24818 -0.52360719 -5.76231247 0.22935252 0 0 Z " fill="#56CE90" transform="translate(35.0732421875,41.91748046875)"/>
<path d="M0 0 C0.33 0 0.66 0 1 0 C1 2.97 1 5.94 1 9 C-1.78906461 10.50501988 -4.58100719 12.0041807 -7.375 13.5 C-8.1690625 13.92925781 -8.963125 14.35851562 -9.78125 14.80078125 C-10.54179687 15.20683594 -11.30234375 15.61289063 -12.0859375 16.03125 C-12.7876709 16.40830078 -13.4894043 16.78535156 -14.21240234 17.17382812 C-16 18 -16 18 -18 18 C-18.66 14.37 -19.32 10.74 -20 7 C-18.68 6.67 -17.36 6.34 -16 6 C-15.67 8.31 -15.34 10.62 -15 13 C-14.08476562 12.4946875 -13.16953125 11.989375 -12.2265625 11.46875 C-11.02616155 10.81228073 -9.82563413 10.1560427 -8.625 9.5 C-8.02171875 9.16613281 -7.4184375 8.83226563 -6.796875 8.48828125 C-2.2265625 6 -2.2265625 6 0 6 C0 4.02 0 2.04 0 0 Z " fill="#59D291" transform="translate(202,91)"/>
<path d="M0 0 C1.10594212 4.42376847 0.84518806 6.0211283 -0.765625 10.09375 C-2.95068067 13.46813977 -6.32408914 14.67283028 -10 16 C-11.31626692 12.38026598 -12 9.90432869 -12 6 C-8.04 4.02 -4.08 2.04 0 0 Z " fill="#DAF4D7" transform="translate(201,119)"/>
<path d="M0 0 C1.65 0.33 3.3 0.66 5 1 C5 1.99 5 2.98 5 4 C5.94875 3.95875 6.8975 3.9175 7.875 3.875 C11 4 11 4 13 6 C13.25 8.5 13.25 8.5 13 11 C11 13 11 13 8 13.25 C5 13 5 13 3 11 C2.875 7.875 2.875 7.875 3 5 C1.68 4.67 0.36 4.34 -1 4 C-0.67 2.68 -0.34 1.36 0 0 Z " fill="#BCF6A8" transform="translate(72,166)"/>
<path d="M0 0 C0 3.3 0 6.6 0 10 C-3.63 10.66 -7.26 11.32 -11 12 C-11 9.03 -11 6.06 -11 3 C-9.35467212 2.49833923 -7.70872301 1.99871553 -6.0625 1.5 C-4.68771484 1.08234375 -4.68771484 1.08234375 -3.28515625 0.65625 C-1 0 -1 0 0 0 Z " fill="#E2FADB" transform="translate(126,119)"/>
<path d="M0 0 C0 3 0 3 -1.21484375 4.5 C-5.03307243 7.82471613 -8.33269545 9.75383203 -13.1875 11.14453125 C-17.74218439 12.52991442 -22.15227485 14.30480168 -26.59155273 16.01953125 C-31.78840776 18 -31.78840776 18 -34 18 C-34.33 17.01 -34.66 16.02 -35 15 C-31.54329268 13.82847622 -28.08437878 12.66360923 -24.625 11.5 C-23.14773437 10.99919922 -23.14773437 10.99919922 -21.640625 10.48828125 C-20.69960937 10.17246094 -19.75859375 9.85664063 -18.7890625 9.53125 C-17.91975098 9.23798828 -17.05043945 8.94472656 -16.15478516 8.64257812 C-14 8 -14 8 -12 8 C-12 7.34 -12 6.68 -12 6 C-8.04 4.02 -4.08 2.04 0 0 Z " fill="#29C173" transform="translate(241,189)"/>
<path d="M0 0 C0 3.63 0 7.26 0 11 C-2.31 11.33 -4.62 11.66 -7 12 C-10 5.375 -10 5.375 -10 2 C-6.38026598 0.68373308 -3.90432869 0 0 0 Z " fill="#D3ECD3" transform="translate(109,142)"/>
<path d="M0 0 C0.99 0 1.98 0 3 0 C3.33 2.97 3.66 5.94 4 9 C9.445 7.02 9.445 7.02 15 5 C15.33 6.32 15.66 7.64 16 9 C14.43979133 9.65134925 12.87671421 10.29582964 11.3125 10.9375 C10.44238281 11.29714844 9.57226562 11.65679687 8.67578125 12.02734375 C6 13 6 13 1 14 C0.67 9.38 0.34 4.76 0 0 Z " fill="#5ECE95" transform="translate(130,117)"/>
<path d="M0 0 C0 0.66 0 1.32 0 2 C-0.74983154 2.13575439 -1.49966309 2.27150879 -2.2722168 2.41137695 C-5.74456237 3.041912 -9.21602582 3.67718564 -12.6875 4.3125 C-13.86634766 4.52583984 -15.04519531 4.73917969 -16.25976562 4.95898438 C-23.33263759 6.25729238 -30.30419778 7.74045077 -37.26879883 9.53588867 C-39.95383865 9.99215583 -41.46370292 9.89924294 -44 9 C-40.73452736 7.17186621 -37.59598403 6.32992436 -33.94921875 5.52734375 C-32.77552734 5.26759766 -31.60183594 5.00785156 -30.39257812 4.74023438 C-29.16990234 4.47533203 -27.94722656 4.21042969 -26.6875 3.9375 C-25.47642578 3.66873047 -24.26535156 3.39996094 -23.01757812 3.12304688 C-7.90967428 -0.19291888 -7.90967428 -0.19291888 0 0 Z " fill="#8FDBB5" transform="translate(176,176)"/>
<path d="M0 0 C0 2.64 0 5.28 0 8 C-6.625 11 -6.625 11 -10 11 C-10 8.36 -10 5.72 -10 3 C-6.27034861 0.96564469 -4.33094958 0 0 0 Z " fill="#DCF5D8" transform="translate(162,108)"/>
<path d="M0 0 C5.71428571 0.71428571 5.71428571 0.71428571 7 2 C7.1875 5.4375 7.1875 5.4375 7 9 C5 11 5 11 1.375 11.125 C0.26125 11.08375 -0.8525 11.0425 -2 11 C-1.85957123 9.35369672 -1.71250671 7.70795821 -1.5625 6.0625 C-1.48128906 5.14597656 -1.40007812 4.22945312 -1.31640625 3.28515625 C-1 1 -1 1 0 0 Z " fill="#F5F6F8" transform="translate(89,236)"/>
<path d="M0 0 C0.33 2.31 0.66 4.62 1 7 C-0.28913487 7.67154933 -1.58140204 8.33708859 -2.875 9 C-3.59429687 9.37125 -4.31359375 9.7425 -5.0546875 10.125 C-7 11 -7 11 -9 11 C-9.33 8.36 -9.66 5.72 -10 3 C-6.27034861 0.96564469 -4.33094958 0 0 0 Z " fill="#DAF5D7" transform="translate(179,101)"/>
<path d="M0 0 C0 2.31 0 4.62 0 7 C-1.60032137 7.84069415 -3.20541171 8.67231505 -4.8125 9.5 C-5.70582031 9.9640625 -6.59914062 10.428125 -7.51953125 10.90625 C-10 12 -10 12 -13 12 C-13.37109375 9.73828125 -13.37109375 9.73828125 -13 7 C-10.41015625 4.98046875 -10.41015625 4.98046875 -7.0625 3.1875 C-5.96035156 2.58292969 -4.85820312 1.97835937 -3.72265625 1.35546875 C-1 0 -1 0 0 0 Z " fill="#DCF5D8" transform="translate(203,104)"/>
<path d="M0 0 C2 2 2 2 2.25 4.5 C2 7 2 7 0 9 C-3.625 8.625 -3.625 8.625 -7 8 C-7.33 6.02 -7.66 4.04 -8 2 C-4.77626323 -0.14915785 -3.73296326 -0.38286803 0 0 Z " fill="#86EF5F" transform="translate(59,182)"/>
<path d="M0 0 C3.12402775 1.9494713 5.55769486 4.25678048 8 7 C7.67 7.66 7.34 8.32 7 9 C6.2575 8.360625 5.515 7.72125 4.75 7.0625 C-0.21566143 3.33825393 -5.95373806 3.2752115 -12 4 C-14.40047644 5.07776493 -15.94125751 6.30153745 -18 8 C-18.99 8.495 -18.99 8.495 -20 9 C-16.58578697 0.30927593 -8.39838857 -1.44294461 0 0 Z " fill="#E8F3F0" transform="translate(117,170)"/>
<path d="M0 0 C0 1.98 0 3.96 0 6 C-3.96 6.99 -7.92 7.98 -12 9 C-12 7.02 -12 5.04 -12 3 C-10.75336669 2.49166409 -9.50250613 1.99368855 -8.25 1.5 C-7.55390625 1.2215625 -6.8578125 0.943125 -6.140625 0.65625 C-4 0 -4 0 0 0 Z " fill="#D5F3D4" transform="translate(128,137)"/>
<path d="M0 0 C-0.33 1.65 -0.66 3.3 -1 5 C-5.95 6.485 -5.95 6.485 -11 8 C-11.33 6.02 -11.66 4.04 -12 2 C-4.71428571 -1.57142857 -4.71428571 -1.57142857 0 0 Z " fill="#D6F2D4" transform="translate(147,132)"/>
<path d="M0 0 C1.8871875 0.2475 1.8871875 0.2475 3.8125 0.5 C13.08411407 1.5374578 13.08411407 1.5374578 22.26171875 0.4296875 C22.83535156 0.28789063 23.40898438 0.14609375 24 0 C24.33 0.33 24.66 0.66 25 1 C26.51928038 1.07179964 28.04167482 1.08392007 29.5625 1.0625 C30.38878906 1.05347656 31.21507813 1.04445312 32.06640625 1.03515625 C33.02353516 1.01775391 33.02353516 1.01775391 34 1 C31.375 3.96875 31.375 3.96875 28 4.25 C25 4 25 4 22 3 C21.01 3.495 21.01 3.495 20 4 C17.35882311 4.17704592 14.76803404 4.27741548 12.125 4.3125 C11.40441406 4.34150391 10.68382812 4.37050781 9.94140625 4.40039062 C6.26510666 4.44439789 4.40008061 4.32218329 1.4921875 1.98046875 C0.99976562 1.32691406 0.50734375 0.67335937 0 0 Z " fill="#41BD83" transform="translate(18,58)"/>
<path d="M0 0 C2.35614542 0.82028767 4.25640649 1.89470617 6.359375 3.234375 C7.06578125 3.6778125 7.7721875 4.12125 8.5 4.578125 C9.29664063 5.15046875 9.29664063 5.15046875 10.109375 5.734375 C10.109375 6.064375 10.109375 6.394375 10.109375 6.734375 C3.179375 6.404375 -3.750625 6.074375 -10.890625 5.734375 C-2.73285238 -0.38395447 -2.73285238 -0.38395447 0 0 Z " fill="#DAF0DA" transform="translate(93.890625,199.265625)"/>
<path d="M0 0 C0 1.98 0 3.96 0 6 C-3.3 7.32 -6.6 8.64 -10 10 C-11 9 -11 9 -11.0625 6.4375 C-11.041875 5.633125 -11.02125 4.82875 -11 4 C-9.5437455 3.32880451 -8.08492133 2.66318193 -6.625 2 C-5.81289062 1.62875 -5.00078125 1.2575 -4.1640625 0.875 C-2 0 -2 0 0 0 Z " fill="#D7F2D5" transform="translate(165,123)"/>
<path d="M0 0 C0.33 0 0.66 0 1 0 C1 4.62 1 9.24 1 14 C-7.75 17 -7.75 17 -10 17 C-10.33 15.35 -10.66 13.7 -11 12 C-5.555 11.01 -5.555 11.01 0 10 C0 6.7 0 3.4 0 0 Z " fill="#60CA95" transform="translate(107,124)"/>
<path d="M0 0 C2.5625 0.1875 2.5625 0.1875 4.5625 2.1875 C4.00694444 6.74305556 4.00694444 6.74305556 2.5625 8.1875 C0.125 8.375 0.125 8.375 -2.4375 8.1875 C-3.0975 7.5275 -3.7575 6.8675 -4.4375 6.1875 C-3.71780303 0.28598485 -3.71780303 0.28598485 0 0 Z " fill="#CEF8BE" transform="translate(39.4375,153.8125)"/>
<path d="M0 0 C2 4 2 4 2 6 C0.71086513 6.67154933 -0.58140204 7.33708859 -1.875 8 C-2.59429687 8.37125 -3.31359375 8.7425 -4.0546875 9.125 C-6 10 -6 10 -8 10 C-8.33 8.35 -8.66 6.7 -9 5 C-6.03 3.35 -3.06 1.7 0 0 Z " fill="#D8F3D6" transform="translate(181,115)"/>
<path d="M0 0 C0.680625 0.309375 1.36125 0.61875 2.0625 0.9375 C6.8903309 2.68373671 11.05445461 3.39093464 16 2 C21.83618829 1.55106244 25.70941748 2.77238631 31 5 C28 6 28 6 25 5 C17.16762752 4.49031997 17.16762752 4.49031997 9.6875 6.375 C7 7 7 7 5.08984375 5.83203125 C3.26428752 4.30408061 1.58433057 2.77651268 0 1 C0 0.67 0 0.34 0 0 Z " fill="#27A471" transform="translate(91,162)"/>
<path d="M0 0 C2.5 0.125 2.5 0.125 3.5 1.125 C3.625 4.125 3.625 4.125 3.5 7.125 C2.5 8.125 2.5 8.125 0.0625 8.3125 C-2.5 8.125 -2.5 8.125 -4.5 6.125 C-3.77607362 0.18880368 -3.77607362 0.18880368 0 0 Z " fill="#BDF6A9" transform="translate(68.5,156.875)"/>
<path d="M0 0 C0.99 0 1.98 0 3 0 C3 2.31 3 4.62 3 7 C3.54269531 6.7834375 4.08539063 6.566875 4.64453125 6.34375 C5.35996094 6.0653125 6.07539063 5.786875 6.8125 5.5 C7.87404297 5.08234375 7.87404297 5.08234375 8.95703125 4.65625 C11 4 11 4 14 4 C14.33 3.01 14.66 2.02 15 1 C15 2.32 15 3.64 15 5 C12.8765984 5.83739781 10.7512272 6.66980283 8.625 7.5 C7.44164062 7.9640625 6.25828125 8.428125 5.0390625 8.90625 C2 10 2 10 0 10 C-0.19412181 8.52168779 -0.38012131 7.04230684 -0.5625 5.5625 C-0.66691406 4.73878906 -0.77132812 3.91507813 -0.87890625 3.06640625 C-0.91886719 2.38449219 -0.95882812 1.70257813 -1 1 C-0.67 0.67 -0.34 0.34 0 0 Z " fill="#59C891" transform="translate(154,141)"/>
<path d="M0 0 C0.66 0.33 1.32 0.66 2 1 C2 1.66 2 2.32 2 3 C1.02417969 3.47050781 0.04835937 3.94101563 -0.95703125 4.42578125 C-2.24234508 5.05436539 -3.52749267 5.68328952 -4.8125 6.3125 C-5.45509766 6.62123047 -6.09769531 6.92996094 -6.75976562 7.24804688 C-9.99610982 8.84106604 -12.57777126 10.32279981 -15 13 C-17.1875 13.6875 -17.1875 13.6875 -19 14 C-18.64174431 11.3909414 -18.35849259 10.28692529 -16.26586914 8.61206055 C-15.16166626 8.00551636 -15.16166626 8.00551636 -14.03515625 7.38671875 C-12.83536133 6.7225293 -12.83536133 6.7225293 -11.61132812 6.04492188 C-10.77021484 5.59697266 -9.92910156 5.14902344 -9.0625 4.6875 C-7.80663086 3.98657227 -7.80663086 3.98657227 -6.52539062 3.27148438 C-1.92179412 0.76413535 -1.92179412 0.76413535 0 0 Z " fill="#1F4D6D" transform="translate(207,76)"/>
<path d="M0 0 C3.125 0.375 3.125 0.375 6 1 C6.125 3.375 6.125 3.375 6 6 C5.34 6.66 4.68 7.32 4 8 C1.375 7.625 1.375 7.625 -1 7 C-1.625 4.625 -1.625 4.625 -2 2 C-1.34 1.34 -0.68 0.68 0 0 Z " fill="#88EF62" transform="translate(61,167)"/>
<path d="M0 0 C2.375 0.3125 2.375 0.3125 5 1 C9.10553546 7.1583032 9.33093523 15.71942502 9 23 C8.67 23 8.34 23 8 23 C6.68 17.06 5.36 11.12 4 5 C2.35 4.67 0.7 4.34 -1 4 C-0.67 2.68 -0.34 1.36 0 0 Z " fill="#70D18E" transform="translate(207,70)"/>
<path d="M0 0 C1.50433594 0.01353516 1.50433594 0.01353516 3.0390625 0.02734375 C3.80992188 0.03894531 4.58078125 0.05054688 5.375 0.0625 C5.045 1.0525 4.715 2.0425 4.375 3.0625 C-3.05 4.5475 -3.05 4.5475 -10.625 6.0625 C-6.98032113 -0.01196478 -6.52754713 -0.07590171 0 0 Z " fill="#F1FAF6" transform="translate(26.625,44.9375)"/>
<path d="M0 0 C4.12909332 2.14101135 6.11945033 3.81709513 8 8 C7.25556641 7.45859375 7.25556641 7.45859375 6.49609375 6.90625 C1.86389321 3.74193843 -1.2275391 2.07228307 -7 3 C-9.78558604 4.14469409 -12.39827829 5.48627101 -15 7 C-12.02123921 0.50576476 -6.9916598 -1.2450901 0 0 Z " fill="#D4E8E3" transform="translate(197,168)"/>
<path d="M0 0 C0.33 2.31 0.66 4.62 1 7 C1.66 7 2.32 7 3 7 C2.67 8.32 2.34 9.64 2 11 C0.68 11.33 -0.64 11.66 -2 12 C-2.66 8.37 -3.32 4.74 -4 1 C-2 0 -2 0 0 0 Z " fill="#66D29B" transform="translate(186,97)"/>
<path d="M0 0 C2.64 0 5.28 0 8 0 C8.33 1.32 8.66 2.64 9 4 C7.66666667 4.33333333 6.33333333 4.66666667 5 5 C4.29875 5.20625 3.5975 5.4125 2.875 5.625 C1 6 1 6 -1 5 C-0.67 3.35 -0.34 1.7 0 0 Z " fill="#89EF63" transform="translate(41,167)"/>
<path d="M0 0 C0.33 2.31 0.66 4.62 1 7 C2.98 6.34 4.96 5.68 7 5 C4.45543849 7.96865509 1.51005335 9.3619751 -2 11 C-3.31626692 7.38026598 -4 4.90432869 -4 1 C-1 0 -1 0 0 0 Z " fill="#5BCC93" transform="translate(193,124)"/>
<path d="M0 0 C3.6875 0.3125 3.6875 0.3125 6.1875 2.0625 C7.6875 4.3125 7.6875 4.3125 7.4375 6.5625 C7.19 7.14 6.9425 7.7175 6.6875 8.3125 C6.15125 7.6525 5.615 6.9925 5.0625 6.3125 C2.80986522 4.03454739 2.80986522 4.03454739 -0.375 4 C-3.36950861 4.21256069 -3.36950861 4.21256069 -6.3125 5.3125 C-3.92091837 0.36989796 -3.92091837 0.36989796 0 0 Z " fill="#84EE61" transform="translate(105.3125,82.6875)"/>
<path d="M0 0 C0 1.65 0 3.3 0 5 C-3.96 5 -7.92 5 -12 5 C-12 4.34 -12 3.68 -12 3 C-10.56445975 2.49440092 -9.1264798 1.9957251 -7.6875 1.5 C-6.88699219 1.2215625 -6.08648437 0.943125 -5.26171875 0.65625 C-3 0 -3 0 0 0 Z " fill="#D8EFD6" transform="translate(130,151)"/>
<path d="M0 0 C0 1.98 0 3.96 0 6 C0.66 6 1.32 6 2 6 C1.67 7.32 1.34 8.64 1 10 C-0.32 10.33 -1.64 10.66 -3 11 C-3.33 8.03 -3.66 5.06 -4 2 C-1 0 -1 0 0 0 Z " fill="#66CE9A" transform="translate(190,111)"/>
<path d="M0 0 C2.4375 1 2.4375 1 4 2 C4 2.66 4 3.32 4 4 C3.505 3.835 3.01 3.67 2.5 3.5 C-2.94924531 2.41015094 -6.57196234 2.1802006 -11.375 4.9375 C-12.24125 5.618125 -13.1075 6.29875 -14 7 C-14.99 7.495 -14.99 7.495 -16 8 C-16 7.01 -16 6.02 -16 5 C-10.63317062 1.59248928 -6.57504034 -0.90245652 0 0 Z " fill="#3DAC80" transform="translate(197,170)"/>
<path d="M0 0 C0.33 2.31 0.66 4.62 1 7 C1.99 7.33 2.98 7.66 4 8 C2.02 8.66 0.04 9.32 -2 10 C-2.66 7.03 -3.32 4.06 -4 1 C-2 0 -2 0 0 0 Z " fill="#5ECE95" transform="translate(175,133)"/>
<path d="M0 0 C-5.28 1.98 -10.56 3.96 -16 6 C-16.33 5.34 -16.66 4.68 -17 4 C-19.02463255 3.34786708 -19.02463255 3.34786708 -21 3 C-18.06449875 2.30278105 -15.12712524 1.61690995 -12.1875 0.9375 C-11.35412109 0.73833984 -10.52074219 0.53917969 -9.66210938 0.33398438 C-8.85966797 0.15029297 -8.05722656 -0.03339844 -7.23046875 -0.22265625 C-6.12288208 -0.48187866 -6.12288208 -0.48187866 -4.99291992 -0.74633789 C-3 -1 -3 -1 0 0 Z " fill="#32707A" transform="translate(229,197)"/>
<path d="M0 0 C0 3 0 3 -1.42578125 4.60546875 C-2.04839844 5.12753906 -2.67101562 5.64960938 -3.3125 6.1875 C-3.92738281 6.71730469 -4.54226562 7.24710938 -5.17578125 7.79296875 C-7 9 -7 9 -10 9 C-10 8.34 -10 7.68 -10 7 C-10.66 6.67 -11.32 6.34 -12 6 C-8.04 4.02 -4.08 2.04 0 0 Z " fill="#4EC88B" transform="translate(241,189)"/>
<path d="M0 0 C2.125 0.375 2.125 0.375 4 1 C4.625 2.875 4.625 2.875 5 5 C4.34 5.66 3.68 6.32 3 7 C0.875 6.625 0.875 6.625 -1 6 C-1.625 4.125 -1.625 4.125 -2 2 C-1.34 1.34 -0.68 0.68 0 0 Z " fill="#CDF8BE" transform="translate(46,175)"/>
<path d="M0 0 C2.23083586 3.34625379 3.42470489 6.72240778 4.6875 10.5 C4.92533203 11.17675781 5.16316406 11.85351562 5.40820312 12.55078125 C7.11983385 17.64049844 7.11983385 17.64049844 6 21 C4.79848104 18.25538312 3.61361897 15.50547873 2.4375 12.75 C2.09525391 11.97269531 1.75300781 11.19539062 1.40039062 10.39453125 C0.92182617 9.26337891 0.92182617 9.26337891 0.43359375 8.109375 C-0.01415405 7.07248535 -0.01415405 7.07248535 -0.47094727 6.01464844 C-1.09209599 3.64929576 -0.77451334 2.28986553 0 0 Z " fill="#1C786A" transform="translate(87,123)"/>
<path d="M0 0 C2 1 2 1 2.59423828 2.76586914 C2.75134277 3.51473389 2.90844727 4.26359863 3.0703125 5.03515625 C3.33134766 6.24848633 3.33134766 6.24848633 3.59765625 7.48632812 C3.85869141 8.7615332 3.85869141 8.7615332 4.125 10.0625 C4.30675781 10.91650391 4.48851563 11.77050781 4.67578125 12.65039062 C5.12476342 14.76533296 5.56335351 16.88247647 6 19 C5.34 19.33 4.68 19.66 4 20 C3.58427734 18.53626953 3.58427734 18.53626953 3.16015625 17.04296875 C2.794306 15.75780249 2.42841864 14.47264679 2.0625 13.1875 C1.70285156 11.92292969 1.34320313 10.65835938 0.97265625 9.35546875 C0.35508739 7.22498018 -0.29854631 5.10436108 -1 3 C-0.67 2.01 -0.34 1.02 0 0 Z " fill="#CEEACB" transform="translate(64,75)"/>
<path d="M0 0 C0.33 0 0.66 0 1 0 C1.33 2.64 1.66 5.28 2 8 C6.62 6.68 11.24 5.36 16 4 C16 4.66 16 5.32 16 6 C13.89748139 6.67184618 11.79292237 7.33730968 9.6875 8 C7.92986328 8.556875 7.92986328 8.556875 6.13671875 9.125 C3 10 3 10 0 10 C0 6.7 0 3.4 0 0 Z " fill="#AED2CA" transform="translate(113,141)"/>
<path d="M0 0 C0 1.65 0 3.3 0 5 C-2.31 5.33 -4.62 5.66 -7 6 C-7.33 4.68 -7.66 3.36 -8 2 C-2.25 0 -2.25 0 0 0 Z " fill="#5AD092" transform="translate(109,148)"/>
<path d="M0 0 C-0.33 3.63 -0.66 7.26 -1 11 C0.32 11.33 1.64 11.66 3 12 C1.35 12.33 -0.3 12.66 -2 13 C-2.66 9.04 -3.32 5.08 -4 1 C-1 0 -1 0 0 0 Z " fill="#7FCCAC" transform="translate(169,104)"/>
<path d="M0 0 C6.6291777 0.23260273 10.66023196 2.15139059 16 6 C14 7 14 7 11.5390625 6.29296875 C10.57742187 5.92816406 9.61578125 5.56335937 8.625 5.1875 C7.66851562 4.83042969 6.71203125 4.47335938 5.7265625 4.10546875 C3.4142602 3.16795937 1.20868602 2.15668154 -1 1 C-0.67 0.67 -0.34 0.34 0 0 Z " fill="#61D597" transform="translate(52,43)"/>
<path d="M0 0 C1.65 0.33 3.3 0.66 5 1 C4.67 2.65 4.34 4.3 4 6 C2.35 5.67 0.7 5.34 -1 5 C-0.67 3.35 -0.34 1.7 0 0 Z " fill="#D0F8C1" transform="translate(65,191)"/>
<path d="M0 0 C0.66 0.33 1.32 0.66 2 1 C1 4 1 4 -1.1796875 5.421875 C-2.06914062 5.86015625 -2.95859375 6.2984375 -3.875 6.75 C-4.75929687 7.19859375 -5.64359375 7.6471875 -6.5546875 8.109375 C-9 9 -9 9 -12 8 C-11.30132812 7.59007812 -10.60265625 7.18015625 -9.8828125 6.7578125 C-8.97273437 6.21898437 -8.06265625 5.68015625 -7.125 5.125 C-6.22007812 4.59132812 -5.31515625 4.05765625 -4.3828125 3.5078125 C-1.93396718 2.08024648 -1.93396718 2.08024648 0 0 Z " fill="#26AF71" transform="translate(191,146)"/>
<path d="M0 0 C2.0625 0.4375 2.0625 0.4375 4 1 C3.67 2.65 3.34 4.3 3 6 C1.35 5.67 -0.3 5.34 -2 5 C-1.125 1.125 -1.125 1.125 0 0 Z " fill="#E1FBD8" transform="translate(57,83)"/>
<path d="M0 0 C0.33 0 0.66 0 1 0 C1 2.64 1 5.28 1 8 C-1.97 7.505 -1.97 7.505 -5 7 C-4.19152271 5.83054208 -3.37810888 4.66449539 -2.5625 3.5 C-2.11003906 2.8503125 -1.65757813 2.200625 -1.19140625 1.53125 C-0.79824219 1.0259375 -0.40507813 0.520625 0 0 Z " fill="#DADDE6" transform="translate(58,235)"/>
<path d="M0 0 C2 2 2 2 2 5 C3.32 4.67 4.64 4.34 6 4 C5.67 4.99 5.34 5.98 5 7 C2.4375 8.1875 2.4375 8.1875 0 9 C-0.87890625 2.84765625 -0.87890625 2.84765625 -1 1 C-0.67 0.67 -0.34 0.34 0 0 Z " fill="#34CF79" transform="translate(171,120)"/>
<path d="M0 0 C0.66 0 1.32 0 2 0 C2.33 2.31 2.66 4.62 3 7 C1.68 7 0.36 7 -1 7 C-1.04254356 5.00045254 -1.04080783 2.99958364 -1 1 C-0.67 0.67 -0.34 0.34 0 0 Z " fill="#65D099" transform="translate(135,148)"/>
<path d="M0 0 C1.875 0.25 1.875 0.25 4 1 C5.25 3.0625 5.25 3.0625 6 5 C4.35 5 2.7 5 1 5 C0.67 3.35 0.34 1.7 0 0 Z " fill="#BFF6AB" transform="translate(63,177)"/>
<path d="M0 0 C1.32 0 2.64 0 4 0 C3.67 1.65 3.34 3.3 3 5 C1.68 4.67 0.36 4.34 -1 4 C-0.67 2.68 -0.34 1.36 0 0 Z " fill="#89F063" transform="translate(72,166)"/>
<path d="M0 0 C0.33 0.99 0.66 1.98 1 3 C-5.625 6.125 -5.625 6.125 -9 5 C-6.03 3.35 -3.06 1.7 0 0 Z " fill="#CBE3CF" transform="translate(187,140)"/>
<path d="M0 0 C0.33 0.99 0.66 1.98 1 3 C2.32 2.67 3.64 2.34 5 2 C4.34 3.32 3.68 4.64 3 6 C1.68 6 0.36 6 -1 6 C-1.042721 4.33388095 -1.04063832 2.66617115 -1 1 C-0.67 0.67 -0.34 0.34 0 0 Z " fill="#32CF78" transform="translate(169,109)"/>
<path d="M0 0 C4.35535069 1.16142685 6.64619703 2.07699505 9 6 C4.9666466 6 3.16482462 4.39120082 0 2 C0 1.34 0 0.68 0 0 Z " fill="#EFF4F4" transform="translate(62,48)"/>
<path d="M0 0 C0.33 0 0.66 0 1 0 C1 2.64 1 5.28 1 8 C-0.98 8.66 -2.96 9.32 -5 10 C-4.67 9.01 -4.34 8.02 -4 7 C-1.9375 6.3125 -1.9375 6.3125 0 6 C0 4.02 0 2.04 0 0 Z " fill="#3CAF7D" transform="translate(202,91)"/>
<path d="M0 0 C1.32 0 2.64 0 4 0 C3.67 1.65 3.34 3.3 3 5 C2.34 5 1.68 5 1 5 C1 4.34 1 3.68 1 3 C0.34 3 -0.32 3 -1 3 C-0.67 2.01 -0.34 1.02 0 0 Z " fill="#90EA77" transform="translate(75,199)"/>
<path d="M0 0 C-2.68841859 2.25245881 -4.64641875 3.88213958 -8 5 C-7.8125 3.125 -7.8125 3.125 -7 1 C-2.66666667 -1.33333333 -2.66666667 -1.33333333 0 0 Z " fill="#278E73" transform="translate(234,198)"/>
<path d="M0 0 C2.475 0.495 2.475 0.495 5 1 C4.67 1.99 4.34 2.98 4 4 C2.68 4 1.36 4 0 4 C0 2.68 0 1.36 0 0 Z " fill="#89F064" transform="translate(87,197)"/>
<path d="M0 0 C1.32 0 2.64 0 4 0 C4 1.32 4 2.64 4 4 C2.35 3.67 0.7 3.34 -1 3 C-0.67 2.01 -0.34 1.02 0 0 Z " fill="#8DF068" transform="translate(27,160)"/>
<path d="M0 0 C0.99 0.33 1.98 0.66 3 1 C5.14255793 0.61067144 5.14255793 0.61067144 7 0 C4.47043472 3.0916909 1.77545388 3.90931332 -2 5 C-1.34 3.35 -0.68 1.7 0 0 Z " fill="#77C7A6" transform="translate(196,99)"/>
<path d="M0 0 C0.99 0.33 1.98 0.66 3 1 C2.071875 2.1446875 2.071875 2.1446875 1.125 3.3125 C-1.05597052 5.99625809 -1.05597052 5.99625809 -3 9 C-2.25 2.25 -2.25 2.25 0 0 Z " fill="#5ECA95" transform="translate(18,44)"/>
<path d="M0 0 C5 2 5 2 10 4 C10 4.33 10 4.66 10 5 C7.25 5.3125 7.25 5.3125 4 5 C1.625 2.5 1.625 2.5 0 0 Z " fill="#257270" transform="translate(91,162)"/>
<path d="M0 0 C0.33 0 0.66 0 1 0 C1.66 3.3 2.32 6.6 3 10 C2.01 10 1.02 10 0 10 C0 6.7 0 3.4 0 0 Z " fill="#9FC5C1" transform="translate(113,141)"/>
<path d="M0 0 C0.66 0 1.32 0 2 0 C2.66 1.98 3.32 3.96 4 6 C2.68 5.34 1.36 4.68 0 4 C0 2.68 0 1.36 0 0 Z " fill="#C1DED4" transform="translate(71,53)"/>
</svg>
