<svg xmlns="http://www.w3.org/2000/svg" width="64" height="64" viewBox="0 0 64 64" fill="none">
  <rect width="64" height="64" rx="12" fill="#4CAF50"/>
  <path d="M14 20C14 16.6863 16.6863 14 20 14H44C47.3137 14 50 16.6863 50 20V44C50 47.3137 47.3137 50 44 50H20C16.6863 50 14 47.3137 14 44V20Z" fill="white"/>
  <path d="M20 18C18.8954 18 18 18.8954 18 20V44C18 45.1046 18.8954 46 20 46H44C45.1046 46 46 45.1046 46 44V20C46 18.8954 45.1046 18 44 18H20Z" fill="#4CAF50"/>
  <path d="M24 32C24 27.5817 27.5817 24 32 24C36.4183 24 40 27.5817 40 32C40 36.4183 36.4183 40 32 40C27.5817 40 24 36.4183 24 32Z" fill="white"/>
  <path d="M28 32C28 29.7909 29.7909 28 32 28C34.2091 28 36 29.7909 36 32C36 34.2091 34.2091 36 32 36C29.7909 36 28 34.2091 28 32Z" fill="#4CAF50"/>
  <path d="M32 22V16" stroke="white" stroke-width="2" stroke-linecap="round"/>
  <path d="M32 48V42" stroke="white" stroke-width="2" stroke-linecap="round"/>
  <path d="M42 32H48" stroke="white" stroke-width="2" stroke-linecap="round"/>
  <path d="M16 32H22" stroke="white" stroke-width="2" stroke-linecap="round"/>
</svg>
